<?xml version="1.0" encoding="UTF-8" standalone="no"?>
<!DOCTYPE svg PUBLIC "-//W3C//DTD SVG 1.1//EN" "http://www.w3.org/Graphics/SVG/1.1/DTD/svg11.dtd">
<svg xmlns="http://www.w3.org/2000/svg" version="1.1" viewBox="0 0 1315 1593">
<g stroke-width="2.00" fill="none" stroke-linecap="butt">
<path stroke="#f86753" vector-effect="non-scaling-stroke" d="
  M 57.31 0.00
  Q 57.13 0.46 57.14 1.00
  A 1.27 1.26 -68.1 0 0 57.51 1.87
  Q 63.23 7.58 69.08 13.17
  Q 172.85 112.27 276.69 211.31
  C 283.85 218.13 291.10 226.77 297.67 233.33
  Q 361.35 296.87 425.02 360.41
  A 0.35 0.34 64.9 0 0 425.25 360.50
  L 425.53 360.50
  Q 425.85 360.49 425.63 360.72
  Q 424.08 362.37 421.95 362.97
  A 1.78 1.76 11.7 0 0 421.07 363.54
  C 419.73 365.15 418.83 367.09 417.46 368.51
  C 414.42 371.64 405.86 379.89 405.41 381.98
  Q 405.27 382.61 405.71 382.15
  L 408.37 379.39
  A 0.85 0.84 -60.2 0 1 409.20 379.16
  L 411.50 379.79"
/>
<path stroke="#e2a0a1" vector-effect="non-scaling-stroke" d="
  M 411.50 379.79
  L 409.89 381.61"
/>
<path stroke="#8e9a7a" vector-effect="non-scaling-stroke" d="
  M 409.89 381.61
  L 396.63 395.57
  A 1.44 1.42 -52.4 0 1 394.85 395.81
  Q 392.60 394.44 390.48 392.52
  C 380.17 383.21 370.18 373.90 359.48 364.67
  C 323.10 333.29 290.18 302.98 248.25 266.66
  A 1.00 0.99 -32.3 0 0 247.34 266.46
  L 245.81 266.88
  A 0.96 0.96 0.0 0 1 244.90 266.65
  Q 211.06 234.18 176.54 202.42
  C 174.24 200.31 169.84 197.23 167.04 193.63
  C 166.28 192.65 165.02 192.34 164.30 191.70
  Q 140.66 170.63 116.63 149.99
  A 0.67 0.66 -62.6 0 1 116.42 149.31
  L 116.50 149.04"
/>
<path stroke="#97aa89" vector-effect="non-scaling-stroke" d="
  M 116.50 149.04
  Q 118.10 148.08 120.10 148.60
  A 0.46 0.46 0.0 0 0 120.53 147.83
  Q 60.65 90.72 0.63 33.37
  Q 0.31 33.06 0.00 32.69"
/>
<path stroke="#ff7f6c" vector-effect="non-scaling-stroke" d="
  M 186.81 0.00
  Q 187.47 1.66 190.46 4.54
  Q 237.23 49.58 361.75 171.75
  Q 369.61 179.47 376.25 185.02
  C 411.97 214.88 444.32 248.58 478.92 279.72
  Q 485.93 286.03 492.04 293.25"
/>
<path stroke="#ffb7ab" vector-effect="non-scaling-stroke" d="
  M 492.04 293.25
  L 476.46 310.25"
/>
<path stroke="#e9a8a5" vector-effect="non-scaling-stroke" d="
  M 476.46 310.25
  C 458.54 329.48 440.49 348.60 422.77 368.02
  Q 417.28 374.04 411.50 379.79"
/>
<path stroke="#9fc1a2" vector-effect="non-scaling-stroke" d="
  M 265.35 -0.03
  Q 324.32 71.41 383.03 143.06
  C 385.58 146.18 389.04 148.80 391.93 151.81
  Q 434.00 195.60 476.10 239.36
  C 477.91 241.24 480.20 244.10 482.39 246.19
  Q 486.22 249.82 487.35 251.05
  Q 498.09 262.72 509.24 273.90
  A 0.54 0.54 0.0 0 1 509.26 274.64
  L 492.76 292.72"
/>
<path stroke="#ffc7c0" vector-effect="non-scaling-stroke" d="
  M 492.76 292.72
  L 492.04 293.25"
/>
<path stroke="#35e5b5" vector-effect="non-scaling-stroke" d="
  M 116.50 149.04
  L 114.79 149.13
  Q 112.80 149.24 113.89 150.90
  C 119.22 159.06 127.84 163.87 134.71 170.58
  C 141.46 177.18 148.92 183.03 155.50 189.66
  Q 159.57 193.76 163.76 197.74
  C 166.58 200.43 169.97 202.22 172.24 204.29
  Q 188.53 219.11 204.80 233.96
  C 206.50 235.51 208.62 236.43 210.16 237.96
  Q 214.88 242.67 219.60 247.38
  C 221.78 249.56 225.23 251.28 227.24 253.76
  Q 230.23 257.44 233.75 259.09
  A 1.49 1.47 89.2 0 1 234.45 259.78
  Q 236.05 263.01 239.58 263.72
  A 1.33 1.29 -12.3 0 1 240.34 264.19
  L 243.11 267.78
  A 1.96 1.90 80.7 0 0 243.93 268.39
  Q 247.04 269.64 248.81 271.45
  Q 254.62 277.42 260.05 281.77
  C 269.66 289.46 278.44 297.37 287.79 306.71
  Q 291.84 310.76 297.67 315.03
  C 301.38 317.74 304.09 321.54 307.88 324.59
  C 314.85 330.20 321.47 336.23 328.35 341.92
  C 333.36 346.07 338.30 351.65 343.86 356.04
  C 351.68 362.22 358.34 368.41 365.20 375.31
  Q 368.79 378.93 373.09 381.75
  Q 374.33 382.56 375.61 384.12
  C 377.43 386.33 381.12 388.36 382.39 389.47
  C 386.48 393.00 395.02 402.38 400.53 396.02
  C 403.10 393.05 411.40 381.36 415.41 388.83
  C 415.83 389.61 417.21 390.33 417.68 390.83
  Q 423.26 396.82 429.73 401.82
  Q 430.10 402.10 430.56 402.18
  L 432.22 402.47
  A 0.92 0.92 0.0 0 1 432.91 403.03
  Q 433.36 404.17 434.57 404.40
  A 1.46 1.45 -15.9 0 1 435.35 404.83
  Q 438.01 407.64 441.02 410.09
  Q 444.08 412.57 446.64 415.32
  Q 450.04 418.98 453.97 422.07
  C 455.77 423.48 456.95 425.49 458.85 427.01
  A 1.27 1.26 60.8 0 0 459.75 427.27
  Q 462.10 427.02 464.29 426.07
  C 465.53 425.54 466.30 424.03 467.75 425.65
  C 469.56 427.66 469.74 430.74 472.12 432.24
  A 1.68 1.61 -87.4 0 1 472.75 432.96
  Q 479.93 448.90 489.89 463.25
  C 490.17 463.65 489.75 463.81 490.60 464.17
  A 1.41 1.41 0.0 0 1 491.26 464.77
  C 492.09 466.33 495.22 471.70 496.80 472.20
  Q 497.31 472.36 497.00 471.93
  Q 496.23 470.88 496.25 469.71"
/>
<path stroke="#9fdb9e" vector-effect="non-scaling-stroke" d="
  M 496.25 469.71
  C 503.77 478.27 510.48 483.51 517.96 490.27
  Q 518.32 490.60 518.80 490.72
  C 520.07 491.02 520.97 492.28 521.84 492.83
  C 525.38 495.08 527.93 499.19 531.00 501.23
  Q 535.64 504.30 538.33 506.50
  C 540.30 508.11 541.76 510.77 543.85 512.63
  C 547.05 515.46 549.67 518.03 552.66 520.65
  C 553.93 521.76 554.79 523.52 556.43 524.57
  Q 559.18 526.31 559.25 526.38
  Q 564.15 530.43 567.89 535.53"
/>
<path stroke="#89ebdc" vector-effect="non-scaling-stroke" d="
  M 567.89 535.53
  C 570.57 540.61 569.15 551.53 569.05 557.39
  C 568.99 560.63 569.77 564.11 569.96 567.50"
/>
<path stroke="#9ffae2" vector-effect="non-scaling-stroke" d="
  M 569.96 567.50
  L 572.79 658.50"
/>
<path stroke="#4cc2d3" vector-effect="non-scaling-stroke" d="
  M 572.79 658.50
  Q 460.70 658.50 348.80 658.50
  C 347.98 658.50 346.82 658.80 345.88 658.87
  A 1.30 1.26 -68.9 0 0 345.04 659.26
  Q 307.25 698.64 268.88 737.43
  Q 268.36 737.96 266.94 738.77
  Q 265.37 739.66 265.77 741.08"
/>
<path stroke="#3baab4" vector-effect="non-scaling-stroke" d="
  M 265.77 741.08
  L 265.78 797.16
  A 0.52 0.51 0.6 0 0 266.29 797.67
  Q 284.52 798.22 302.66 797.73
  C 303.18 797.71 303.55 797.97 303.54 798.50"
/>
<path stroke="#35a3a6" vector-effect="non-scaling-stroke" d="
  M 303.54 798.50
  C 304.37 853.19 303.38 898.21 303.54 969.00"
/>
<path stroke="#3baab4" vector-effect="non-scaling-stroke" d="
  M 303.54 969.00
  Q 303.49 1040.47 303.33 1111.94
  Q 303.32 1115.34 303.21 1118.75"
/>
<path stroke="#35e5b5" vector-effect="non-scaling-stroke" d="
  M 303.21 1118.75
  Q 300.32 1118.01 298.98 1120.01
  C 292.47 1129.69 284.05 1144.31 276.16 1156.27
  C 250.29 1195.49 228.80 1231.68 200.32 1275.07
  Q 196.89 1280.29 191.48 1289.70
  C 186.89 1297.71 180.86 1304.34 176.59 1312.54
  Q 173.59 1318.30 169.36 1323.72
  A 1.41 1.40 -49.7 0 0 169.51 1325.63
  Q 169.67 1325.77 170.56 1325.77
  Q 658.70 1326.00 1146.83 1326.00
  A 0.95 0.92 -26.5 0 1 1147.37 1326.17
  Q 1147.58 1326.32 1147.84 1326.28
  Q 1148.30 1326.22 1147.90 1325.99
  Q 1146.48 1325.15 1145.76 1323.97
  C 1105.56 1258.43 1062.72 1186.36 1021.25 1117.43
  C 1018.79 1113.34 1016.31 1111.12 1011.54 1113.00"
/>
<path stroke="#48bbcb" vector-effect="non-scaling-stroke" d="
  M 1011.54 1113.00
  Q 1011.40 1110.63 1011.39 1108.25
  Q 1011.23 974.12 1011.21 840.00"
/>
<path stroke="#43b2c2" vector-effect="non-scaling-stroke" d="
  M 1011.21 840.00
  L 1011.50 798.29"
/>
<path stroke="#48bbcb" vector-effect="non-scaling-stroke" d="
  M 1011.50 798.29
  L 1048.32 798.10
  A 0.52 0.51 -0.0 0 0 1048.83 797.60
  C 1049.39 779.01 1049.13 760.47 1049.27 741.88
  A 1.19 1.18 22.4 0 0 1048.90 741.00
  L 1047.25 739.46"
/>
<path stroke="#4cc2d3" vector-effect="non-scaling-stroke" d="
  M 1047.25 739.46
  C 1026.06 716.52 1002.94 693.55 988.06 678.18
  Q 979.46 669.29 970.68 660.56
  C 968.44 658.33 967.26 658.29 964.24 658.31
  C 890.41 658.75 816.58 658.40 742.75 658.79"
/>
<path stroke="#9ffae2" vector-effect="non-scaling-stroke" d="
  M 742.75 658.79
  C 741.56 634.13 740.09 608.32 739.72 583.08
  Q 739.71 582.59 739.46 582.16
  C 738.86 581.15 739.82 575.63 739.79 574.00"
/>
<path stroke="#9fdb9e" vector-effect="non-scaling-stroke" d="
  M 739.79 574.00
  C 743.02 569.82 742.42 565.97 743.81 561.51
  C 745.48 556.14 746.47 550.77 748.39 545.31
  Q 749.41 542.43 749.93 539.39
  Q 750.01 538.90 750.29 538.50
  L 750.84 537.69"
/>
<path stroke="#35e5b5" vector-effect="non-scaling-stroke" d="
  M 750.84 537.69
  C 753.14 536.69 753.12 535.30 753.73 533.27
  C 755.67 526.80 757.56 520.37 759.20 513.82
  Q 760.27 509.54 762.17 505.49
  A 1.52 1.47 53.0 0 0 762.29 504.54
  C 761.62 501.07 762.49 497.76 761.62 494.64
  C 759.72 487.85 755.07 481.23 750.87 474.99
  Q 750.20 474.00 746.17 467.14
  Q 742.66 461.17 737.32 456.58"
/>
<path stroke="#9fdb9e" vector-effect="non-scaling-stroke" d="
  M 737.32 456.58
  Q 736.77 453.74 735.04 451.50"
/>
<path stroke="#9ffae2" vector-effect="non-scaling-stroke" d="
  M 735.04 451.50
  L 733.93 428.29
  A 1.14 1.14 0.0 0 0 732.70 427.21
  L 718.02 428.37"
/>
<path stroke="#9fdb9e" vector-effect="non-scaling-stroke" d="
  M 718.02 428.37
  L 714.50 427.24
  A 1.55 1.52 80.2 0 1 713.72 426.68
  Q 711.18 423.12 705.12 417.13
  Q 698.39 410.47 683.09 390.69
  Q 680.64 387.52 677.55 385.16
  C 666.88 376.99 659.25 371.01 648.32 368.41
  Q 642.00 366.91 623.30 363.10
  C 622.44 362.93 621.08 363.10 620.14 362.46
  A 1.27 1.25 58.6 0 0 619.26 362.24
  C 615.78 362.65 612.29 361.22 609.96 360.86
  Q 593.92 358.39 578.10 354.75
  Q 576.48 354.38 573.82 354.11
  C 571.04 353.83 568.90 353.08 565.96 353.03
  C 563.64 352.99 561.88 352.02 559.58 352.02
  Q 558.18 352.03 556.77 351.76
  A 0.43 0.43 0.0 0 1 556.42 351.29
  C 556.58 349.56 534.74 346.96 532.46 346.78"
/>
<path stroke="#9ffae2" vector-effect="non-scaling-stroke" d="
  M 532.46 346.78
  L 537.81 339.96
  A 0.92 0.91 -48.1 0 0 537.75 338.76
  L 492.76 292.72"
/>
<path stroke="#7fdbcc" vector-effect="non-scaling-stroke" d="
  M 409.89 381.61
  Q 412.80 383.78 415.63 386.01
  C 422.09 391.09 428.63 395.51 434.69 401.15
  C 437.10 403.40 439.89 407.38 443.89 409.70
  A 1.28 1.24 9.3 0 1 444.49 410.51
  Q 444.77 411.70 445.90 411.94
  A 1.22 1.19 -7.3 0 1 446.72 412.56
  Q 448.05 415.07 449.92 416.34
  Q 455.59 420.18 459.37 424.39
  A 1.21 1.21 0.0 0 0 460.27 424.79
  Q 462.89 424.81 464.98 423.04
  A 1.11 1.09 30.1 0 1 465.90 422.80
  L 469.25 423.46"
/>
<path stroke="#95cb8e" vector-effect="non-scaling-stroke" d="
  M 469.25 423.46
  Q 470.13 425.73 471.45 427.70
  C 473.82 431.24 474.88 434.83 477.09 438.38
  C 477.97 439.80 479.56 440.57 480.11 442.53
  A 1.48 1.45 11.4 0 0 480.63 443.30
  Q 481.72 444.16 482.51 446.01
  C 483.86 449.16 487.36 453.08 489.24 456.75
  Q 492.60 463.32 496.25 469.71"
/>
<path stroke="#ffe0bb" vector-effect="non-scaling-stroke" d="
  M 532.46 346.78
  L 525.21 354.50"
/>
<path stroke="#e9f0f9" vector-effect="non-scaling-stroke" d="
  M 525.21 354.50
  C 523.27 352.27 521.51 350.10 519.31 348.10
  C 507.04 336.92 495.06 325.56 482.59 314.55
  C 480.71 312.88 478.50 311.84 476.46 310.25"
/>
<path stroke="#e9d1b5" vector-effect="non-scaling-stroke" d="
  M 525.21 354.50
  Q 521.96 358.24 518.83 362.09
  C 517.82 363.34 517.40 364.89 516.05 366.18
  Q 514.20 367.95 514.15 368.01
  Q 498.79 385.44 483.61 403.02
  C 482.17 404.69 480.73 406.95 479.07 408.78
  Q 478.74 409.15 478.26 409.31
  C 475.51 410.22 474.56 412.83 473.05 415.04
  C 471.00 418.02 467.87 418.63 469.25 423.46"
/>
<path stroke="#ffe0bb" vector-effect="non-scaling-stroke" d="
  M 718.02 428.37
  L 692.25 431.79"
/>
<path stroke="#e9d1b5" vector-effect="non-scaling-stroke" d="
  M 692.25 431.79
  Q 690.21 431.82 688.85 430.56
  A 1.19 1.17 -24.2 0 0 687.99 430.24
  C 683.46 430.42 679.48 431.47 674.48 430.94
  Q 670.75 430.55 668.00 430.70
  C 648.38 431.79 628.87 433.71 609.19 434.54
  C 595.74 435.10 582.15 436.35 568.75 437.25
  A 0.56 0.56 0.0 0 0 568.28 438.04
  Q 571.83 445.81 576.21 452.50"
/>
<path stroke="#ffe0bb" vector-effect="non-scaling-stroke" d="
  M 576.21 452.50
  Q 591.58 477.85 608.60 502.11
  C 613.61 509.26 621.87 520.60 623.68 529.08
  C 626.99 544.59 615.98 554.45 601.50 555.29"
/>
<path stroke="#e9d1b5" vector-effect="non-scaling-stroke" d="
  M 601.50 555.29
  C 599.82 554.72 598.22 554.95 596.71 554.11
  C 586.89 548.63 578.64 540.65 569.71 535.06
  Q 568.78 534.47 567.89 535.53"
/>
<path stroke="#ffe0bb" vector-effect="non-scaling-stroke" d="
  M 735.04 451.50
  Q 735.69 461.73 735.94 481.56
  Q 736.18 501.15 738.96 559.93
  Q 739.29 566.97 739.79 574.00"
/>
<path stroke="#acc8f1" vector-effect="non-scaling-stroke" d="
  M 742.75 658.79
  L 744.04 694.00"
/>
<path stroke="#95a9c3" vector-effect="non-scaling-stroke" d="
  M 744.04 694.00
  L 744.22 708.00"
/>
<path stroke="#acc8f1" vector-effect="non-scaling-stroke" d="
  M 744.22 708.00
  L 576.18 708.00
  A 0.84 0.83 -25.0 0 1 575.65 707.81
  Q 575.47 707.67 575.25 707.71"
/>
<path stroke="#95a9c3" vector-effect="non-scaling-stroke" d="
  M 575.25 707.71
  L 574.22 693.85"
/>
<path stroke="#acc8f1" vector-effect="non-scaling-stroke" d="
  M 574.22 693.85
  L 572.79 658.50"
/>
<path stroke="#e9f0f9" vector-effect="non-scaling-stroke" d="
  M 569.96 567.50
  Q 571.44 566.33 571.96 566.23
  C 581.03 564.35 590.17 561.28 598.22 556.65
  Q 599.76 555.77 601.50 555.29"
/>
<path stroke="#e9f0f9" vector-effect="non-scaling-stroke" d="
  M 576.21 452.50
  L 576.47 451.71
  A 0.84 0.84 0.0 0 1 577.14 451.14
  C 580.94 450.52 584.69 449.31 588.32 448.86
  Q 631.67 443.46 670.00 436.95
  Q 680.20 435.22 692.25 431.79"
/>
<path stroke="#95cb8e" vector-effect="non-scaling-stroke" d="
  M 737.32 456.58
  C 742.53 464.69 747.32 473.06 752.62 481.07
  C 761.03 493.75 760.09 504.09 755.75 518.21
  Q 754.39 522.62 750.84 537.69"
/>
<path stroke="#5589da" vector-effect="non-scaling-stroke" d="
  M 1047.25 739.46
  Q 1045.10 740.67 1044.44 740.68
  Q 1019.15 741.28 965.56 740.94
  Q 960.62 740.91 959.29 741.25"
/>
<path stroke="#5080d1" vector-effect="non-scaling-stroke" d="
  M 959.29 741.25
  L 959.24 741.16
  A 0.18 0.18 0.0 0 0 959.08 741.06
  L 356.75 741.04"
/>
<path stroke="#4978c3" vector-effect="non-scaling-stroke" d="
  M 356.75 741.04
  L 265.77 741.08"
/>
<path stroke="#4271b5" vector-effect="non-scaling-stroke" d="
  M 574.22 693.85
  Q 566.97 694.85 559.64 694.60
  C 558.13 694.55 555.30 694.88 554.51 695.77
  Q 549.67 701.32 544.98 707.06
  A 0.38 0.38 0.0 0 0 545.27 707.68
  Q 559.13 707.93 573.00 708.04
  Q 574.47 708.05 575.25 707.71"
/>
<path stroke="#4271b5" vector-effect="non-scaling-stroke" d="
  M 744.22 708.00
  L 769.12 707.97
  A 0.46 0.46 0.0 0 0 769.58 707.46
  C 769.40 705.18 762.61 698.27 760.88 695.74
  A 2.08 2.08 0.0 0 0 759.07 694.83
  Q 751.59 695.15 744.04 694.00"
/>
<path stroke="#4c79c9" vector-effect="non-scaling-stroke" d="
  M 1011.50 798.29
  C 1001.27 796.36 992.19 797.26 978.21 797.44
  C 973.48 797.49 966.07 796.95 959.76 797.89
  A 0.46 0.45 -5.2 0 1 959.24 797.46
  Q 958.17 769.33 959.29 741.25"
/>
<path stroke="#4068b2" vector-effect="non-scaling-stroke" d="
  M 356.75 741.04
  Q 356.91 741.78 356.47 742.42
  A 1.60 1.53 63.5 0 0 356.19 743.32
  L 356.05 796.99
  A 0.78 0.78 0.0 0 0 356.85 797.77
  C 366.48 797.50 377.82 798.00 385.73 798.00
  Q 668.86 798.00 951.99 798.00
  C 953.94 798.00 959.09 796.56 959.04 799.75
  Q 958.67 826.18 958.78 838.50
  A 0.95 0.95 0.0 0 1 958.34 839.30
  Q 957.44 839.87 956.38 839.34
  Q 955.93 839.12 955.44 839.15
  C 946.69 839.63 935.78 839.26 929.32 839.26
  Q 649.02 839.24 368.73 839.26
  C 365.13 839.26 360.29 839.66 356.04 839.50"
/>
<path stroke="#325995" vector-effect="non-scaling-stroke" d="
  M 356.04 839.50
  L 355.96 799.13
  A 1.46 1.46 0.0 0 0 354.44 797.67
  Q 329.79 798.66 304.56 797.79
  Q 303.99 797.77 303.54 798.50"
/>
<path stroke="#4c79c9" vector-effect="non-scaling-stroke" d="
  M 1011.21 840.00
  L 960.16 839.27
  A 1.24 1.23 0.9 0 0 958.91 840.47
  Q 958.54 855.24 958.51 870.75
  Q 958.22 1044.41 958.27 1218.07
  C 958.27 1225.67 958.68 1236.98 958.44 1246.47
  A 1.15 1.12 -67.4 0 0 958.77 1247.30
  C 959.76 1248.31 959.24 1249.07 958.25 1249.71"
/>
<path stroke="#39a3b3" vector-effect="non-scaling-stroke" d="
  M 958.25 1249.71
  L 357.25 1249.71"
/>
<path stroke="#4068b2" vector-effect="non-scaling-stroke" d="
  M 357.25 1249.71
  L 356.32 1246.68
  Q 356.18 1246.22 356.20 1245.74
  C 356.47 1236.69 355.96 1226.06 355.97 1218.66
  Q 356.17 1030.54 355.73 842.42
  C 355.73 841.61 356.20 840.75 355.96 839.75"
/>
<path stroke="#3961a4" vector-effect="non-scaling-stroke" d="
  M 355.96 839.75
  L 356.04 839.50"
/>
<path stroke="#4068b2" vector-effect="non-scaling-stroke" d="
  M 860.21 915.52
  A 0.74 0.74 0.0 0 0 859.47 914.78
  L 455.91 914.78
  A 0.74 0.74 0.0 0 0 455.17 915.52
  L 455.17 1156.70
  A 0.74 0.74 0.0 0 0 455.91 1157.44
  L 859.47 1157.44
  A 0.74 0.74 0.0 0 0 860.21 1156.70
  L 860.21 915.52"
/>
<path stroke="#325995" vector-effect="non-scaling-stroke" d="
  M 355.96 839.75
  L 306.79 839.96
  A 0.52 0.51 -3.1 0 0 306.28 840.52
  C 307.49 854.94 306.04 870.50 306.05 883.10
  C 306.07 901.26 306.70 919.65 306.72 937.56
  Q 306.79 1018.45 306.73 1099.31
  A 1.11 1.06 -31.6 0 1 306.59 1099.84
  Q 305.74 1101.21 304.64 1100.31
  A 0.23 0.22 -60.0 0 0 304.28 1100.41
  L 304.11 1100.91
  Q 303.69 1102.13 303.69 1100.84
  L 303.54 969.00"
/>
<path stroke="#3eacbb" vector-effect="non-scaling-stroke" d="
  M 1011.54 1113.00
  C 1010.71 1158.25 1010.90 1203.55 1011.37 1248.83
  A 0.57 0.57 0.0 0 1 1010.80 1249.41
  L 958.25 1249.71"
/>
<path stroke="#329aa4" vector-effect="non-scaling-stroke" d="
  M 357.25 1249.71
  Q 336.15 1249.81 315.05 1249.72
  C 312.40 1249.71 308.06 1249.25 304.40 1249.75
  A 0.80 0.79 86.2 0 1 303.50 1248.96
  Q 303.51 1186.21 303.49 1123.18
  C 303.49 1121.89 303.11 1120.25 303.21 1118.75"
/>
<path stroke="#86a0cb" vector-effect="non-scaling-stroke" d="
  M 499.25 926.79
  L 468.29 926.93
  A 1.05 1.05 0.0 0 0 467.25 927.98
  L 467.25 1145.51
  A 0.51 0.51 0.0 0 0 467.76 1146.02
  L 847.00 1145.99
  A 0.49 0.49 0.0 0 0 847.49 1145.54
  C 848.06 1139.38 847.49 1131.33 847.49 1127.15
  Q 847.50 1027.49 847.66 927.78
  A 0.53 0.53 0.0 0 0 847.15 927.25
  L 837.59 926.93"
/>
<path stroke="#325995" vector-effect="non-scaling-stroke" d="
  M 837.59 926.93
  Q 836.28 923.85 832.25 924.40
  Q 825.89 925.28 818.99 924.52
  C 811.94 923.74 804.48 924.77 798.75 924.75
  Q 685.96 924.41 573.17 924.82
  C 566.24 924.84 558.06 924.20 550.50 924.23
  C 529.12 924.30 507.83 924.08 486.37 924.98
  A 0.62 0.62 0.0 0 0 486.31 926.21
  Q 492.59 927.04 499.25 926.79"
/>
<path stroke="#7f9abd" vector-effect="non-scaling-stroke" d="
  M 837.59 926.93
  Q 820.36 927.05 803.33 927.00
  C 798.58 926.99 755.91 926.29 755.19 926.90
  A 0.81 0.77 23.5 0 1 754.67 927.09
  C 668.60 926.70 597.09 926.46 520.93 927.27
  C 514.62 927.34 506.53 926.41 499.25 926.79"
/>
<path stroke="#e1ebf9" vector-effect="non-scaling-stroke" d="
  M 840.99 935.74
  A 1.26 1.26 0.0 0 0 839.73 934.48
  L 475.83 934.48
  A 1.26 1.26 0.0 0 0 474.57 935.74
  L 474.57 1137.18
  A 1.26 1.26 0.0 0 0 475.83 1138.44
  L 839.73 1138.44
  A 1.26 1.26 0.0 0 0 840.99 1137.18
  L 840.99 935.74"
/>
<path stroke="#8da4c3" vector-effect="non-scaling-stroke" d="
  M 520.84 973.19
  A 0.35 0.35 0.0 0 1 520.50 972.84
  L 520.50 967.00
  A 0.35 0.35 0.0 0 1 520.85 966.65
  L 541.34 966.80
  A 0.35 0.35 0.0 0 0 541.69 966.47
  L 542.16 957.88
  A 0.35 0.35 0.0 0 0 541.81 957.51
  L 509.10 957.83
  A 0.35 0.35 0.0 0 0 508.75 958.18
  L 508.75 998.61
  A 0.35 0.35 0.0 0 0 509.10 998.96
  L 542.24 999.02
  A 0.35 0.35 0.0 0 0 542.59 998.66
  L 542.46 989.61
  A 0.35 0.35 0.0 0 0 542.12 989.27
  L 520.61 989.26
  A 0.35 0.35 0.0 0 1 520.26 988.88
  L 520.71 983.07
  A 0.35 0.35 0.0 0 1 521.05 982.75
  L 539.61 982.75
  A 0.35 0.35 0.0 0 0 539.96 982.40
  L 539.99 973.91
  A 0.35 0.35 0.0 0 0 539.65 973.56
  L 520.84 973.19"
/>
<path stroke="#8da4c3" vector-effect="non-scaling-stroke" d="
  M 561.05 988.28
  L 560.87 958.34
  A 0.54 0.53 0.6 0 0 560.34 957.81
  L 549.42 957.61
  A 0.54 0.54 0.0 0 0 548.87 958.15
  L 548.70 998.42
  A 0.51 0.51 0.0 0 0 549.23 998.93
  Q 563.53 998.27 577.83 998.87
  A 0.46 0.46 0.0 0 0 578.31 998.41
  L 578.33 989.17
  A 0.42 0.41 90.0 0 0 577.92 988.75
  L 561.53 988.75
  A 0.48 0.48 0.0 0 1 561.05 988.28"
/>
<path stroke="#8da4c3" vector-effect="non-scaling-stroke" d="
  M 595.28 982.77
  L 613.63 982.74
  A 0.62 0.62 0.0 0 0 614.25 982.12
  L 614.25 974.11
  A 0.55 0.54 0.5 0 0 613.71 973.57
  L 595.86 973.52
  A 0.87 0.87 0.0 0 1 594.99 972.67
  L 594.85 967.41
  A 0.60 0.60 0.0 0 1 595.44 966.80
  L 615.76 966.52
  A 0.45 0.45 0.0 0 0 616.21 966.07
  L 616.24 958.01
  A 0.50 0.50 0.0 0 0 615.74 957.51
  L 583.77 957.52
  A 0.55 0.54 -87.7 0 0 583.23 958.03
  C 582.32 969.91 583.03 984.85 583.04 998.22
  A 0.49 0.48 90.0 0 0 583.52 998.71
  L 616.15 998.94
  A 0.60 0.59 0.0 0 0 616.75 998.35
  L 616.75 989.85
  A 0.58 0.58 0.0 0 0 616.17 989.27
  L 595.62 989.24
  A 0.66 0.66 0.0 0 1 594.96 988.62
  L 594.68 983.41
  A 0.60 0.60 0.0 0 1 595.28 982.77"
/>
<path stroke="#8da4c3" vector-effect="non-scaling-stroke" d="
  M 672.55 967.05
  A 0.40 0.40 0.0 0 1 672.95 967.45
  L 673.03 998.15
  A 0.40 0.40 0.0 0 0 673.42 998.54
  L 684.02 998.68
  A 0.40 0.40 0.0 0 0 684.42 998.28
  L 684.81 967.24
  A 0.40 0.40 0.0 0 1 685.21 966.84
  L 696.30 966.91
  A 0.40 0.40 0.0 0 0 696.70 966.51
  L 696.78 957.97
  A 0.40 0.40 0.0 0 0 696.38 957.57
  L 661.13 957.52
  A 0.40 0.40 0.0 0 0 660.74 957.94
  L 661.25 966.61
  A 0.40 0.40 0.0 0 0 661.64 966.98
  L 672.55 967.05"
/>
<path stroke="#8da4c3" vector-effect="non-scaling-stroke" d="
  M 713.02 958.01
  A 0.27 0.27 0.0 0 0 712.75 957.74
  L 701.27 957.74
  A 0.27 0.27 0.0 0 0 701.00 958.01
  L 701.00 998.33
  A 0.27 0.27 0.0 0 0 701.27 998.60
  L 712.75 998.60
  A 0.27 0.27 0.0 0 0 713.02 998.33
  L 713.02 958.01"
/>
<path stroke="#e1ebf9" vector-effect="non-scaling-stroke" d="
  M 656.75 962.21
  Q 654.63 958.31 650.00 958.79"
/>
<path stroke="#8da4c3" vector-effect="non-scaling-stroke" d="
  M 650.00 958.79
  C 636.58 954.92 622.72 961.16 621.20 975.76
  C 618.90 997.89 644.93 1005.79 659.25 991.44
  A 0.49 0.48 -44.6 0 0 659.26 990.76
  L 653.25 984.65
  A 0.78 0.78 0.0 0 0 652.16 984.62
  C 636.64 998.91 624.78 974.14 639.14 967.67
  Q 644.63 965.20 650.15 969.87
  Q 651.69 971.18 652.66 971.65
  A 0.81 0.80 -58.0 0 0 653.64 971.42
  L 658.82 964.84
  A 0.70 0.69 -50.7 0 0 658.73 963.88
  L 656.75 962.21"
/>
<path stroke="#7f9abd" vector-effect="non-scaling-stroke" d="
  M 650.00 958.79
  L 656.75 962.21"
/>
<path stroke="#8da4c3" vector-effect="non-scaling-stroke" d="
  M 762.5566 977.7408
  A 22.30 20.76 -1.0 0 0 739.8977 957.3732
  A 22.30 20.76 -1.0 0 0 717.9634 978.5192
  A 22.30 20.76 -1.0 0 0 740.6223 998.8868
  A 22.30 20.76 -1.0 0 0 762.5566 977.7408"
/>
<path stroke="#8da4c3" vector-effect="non-scaling-stroke" d="
  M 778.31 975.83
  A 0.23 0.23 0.0 0 1 778.72 975.69
  Q 786.46 985.34 793.74 995.26
  Q 795.10 997.11 796.88 998.65
  A 1.16 1.13 64.1 0 0 797.69 998.94
  L 805.79 998.68
  A 0.47 0.47 0.0 0 0 806.25 998.21
  L 806.25 958.38
  A 0.63 0.63 0.0 0 0 805.62 957.75
  L 796.30 957.75
  A 0.61 0.61 0.0 0 0 795.69 958.36
  L 795.74 979.75
  A 0.55 0.54 -63.6 0 1 794.76 980.08
  L 778.35 958.19
  A 1.10 1.08 71.2 0 0 777.48 957.75
  L 768.11 957.75
  A 0.65 0.64 -0.0 0 0 767.46 958.39
  L 767.62 998.18
  A 0.57 0.56 90.0 0 0 768.18 998.75
  L 777.97 998.75
  A 0.50 0.50 0.0 0 0 778.47 998.24
  L 778.31 975.83"
/>
<path stroke="#8da4c3" vector-effect="non-scaling-stroke" d="
  M 603.02 1066.13
  C 601.34 1092.75 618.81 1114.51 645.20 1118.35
  C 669.14 1121.82 692.94 1112.68 703.04 1090.22
  C 708.29 1078.54 708.68 1065.61 704.61 1053.58
  C 688.19 1005.10 606.46 1011.77 603.02 1066.13"
/>
<path stroke="#8da4c3" vector-effect="non-scaling-stroke" d="
  M 578.28 1067.59
  Q 576.67 1066.67 578.38 1065.95
  Q 593.59 1059.55 592.40 1043.23
  C 591.35 1028.93 573.61 1022.37 561.49 1021.96
  Q 546.63 1021.46 509.23 1021.80
  A 0.48 0.48 0.0 0 0 508.76 1022.28
  L 508.73 1117.79
  A 0.51 0.50 89.4 0 0 509.24 1118.30
  Q 533.04 1118.29 556.80 1118.14
  C 572.58 1118.04 593.93 1112.86 595.68 1093.83
  Q 597.13 1078.05 583.81 1069.75
  C 582.22 1068.76 579.78 1068.45 578.28 1067.59"
/>
<path stroke="#8da4c3" vector-effect="non-scaling-stroke" d="
  M 761.62 1046.40
  L 746.35 1022.49
  A 1.57 1.56 -16.2 0 0 745.03 1021.77
  L 714.00 1021.76
  Q 712.90 1021.76 713.51 1022.68
  L 744.29 1068.57
  A 0.86 0.85 -44.7 0 1 744.28 1069.53
  L 710.88 1117.81
  Q 710.73 1118.03 711.00 1118.04
  L 743.30 1118.20
  A 0.85 0.84 16.5 0 0 744.01 1117.82
  L 761.39 1091.25
  A 0.62 0.62 0.0 0 1 762.42 1091.24
  Q 770.91 1103.75 779.34 1116.42
  Q 780.00 1117.42 780.64 1117.94
  A 1.45 1.44 -25.1 0 0 781.56 1118.27
  L 813.70 1118.20
  Q 814.48 1118.20 814.04 1117.56
  L 780.34 1068.21
  A 0.93 0.93 0.0 0 1 780.34 1067.17
  L 811.31 1022.15
  Q 811.61 1021.71 811.08 1021.71
  L 778.60 1021.83
  A 0.95 0.92 -73.0 0 0 777.82 1022.26
  L 762.41 1046.40
  A 0.47 0.47 0.0 0 1 761.62 1046.40"
/>
<path stroke="#8da4c3" vector-effect="non-scaling-stroke" d="
  M 740.6796 989.3918
  A 11.19 10.37 87.8 0 0 750.6124 977.8119
  A 11.19 10.37 87.8 0 0 739.8204 967.0282
  A 11.19 10.37 87.8 0 0 729.8876 978.6081
  A 11.19 10.37 87.8 0 0 740.6796 989.3918"
/>
<path stroke="#8da4c3" vector-effect="non-scaling-stroke" d="
  M 655.4479 1095.6086
  A 25.58 23.69 89.4 0 0 678.8687 1069.7819
  A 25.58 23.69 89.4 0 0 654.9121 1044.4514
  A 25.58 23.69 89.4 0 0 631.4913 1070.2781
  A 25.58 23.69 89.4 0 0 655.4479 1095.6086"
/>
<path stroke="#8da4c3" vector-effect="non-scaling-stroke" d="
  M 555.60 1059.52
  C 567.19 1058.87 566.79 1043.13 555.48 1043.03
  Q 546.50 1042.95 537.35 1043.04
  A 0.53 0.53 0.0 0 0 536.82 1043.57
  L 536.72 1058.96
  A 0.67 0.67 0.0 0 0 537.36 1059.63
  Q 546.49 1060.02 555.60 1059.52"
/>
<path stroke="#8da4c3" vector-effect="non-scaling-stroke" d="
  M 537.36 1096.80
  C 543.55 1097.10 558.40 1098.48 563.14 1094.66
  C 568.94 1089.97 567.21 1082.16 560.41 1079.77
  C 554.28 1077.62 544.10 1078.70 537.47 1078.85
  A 0.57 0.57 0.0 0 0 536.91 1079.42
  L 536.78 1096.18
  A 0.61 0.61 0.0 0 0 537.36 1096.80"
/>
</g>
<path fill="#f05f4e" d="
  M 0.00 0.00
  L 57.31 0.00
  Q 57.13 0.46 57.14 1.00
  A 1.27 1.26 -68.1 0 0 57.51 1.87
  Q 63.23 7.58 69.08 13.17
  Q 172.85 112.27 276.69 211.31
  C 283.85 218.13 291.10 226.77 297.67 233.33
  Q 361.35 296.87 425.02 360.41
  A 0.35 0.34 64.9 0 0 425.25 360.50
  L 425.53 360.50
  Q 425.85 360.49 425.63 360.72
  Q 424.08 362.37 421.95 362.97
  A 1.78 1.76 11.7 0 0 421.07 363.54
  C 419.73 365.15 418.83 367.09 417.46 368.51
  C 414.42 371.64 405.86 379.89 405.41 381.98
  Q 405.27 382.61 405.71 382.15
  L 408.37 379.39
  A 0.85 0.84 -60.2 0 1 409.20 379.16
  L 411.50 379.79
  L 409.89 381.61
  L 396.63 395.57
  A 1.44 1.42 -52.4 0 1 394.85 395.81
  Q 392.60 394.44 390.48 392.52
  C 380.17 383.21 370.18 373.90 359.48 364.67
  C 323.10 333.29 290.18 302.98 248.25 266.66
  A 1.00 0.99 -32.3 0 0 247.34 266.46
  L 245.81 266.88
  A 0.96 0.96 0.0 0 1 244.90 266.65
  Q 211.06 234.18 176.54 202.42
  C 174.24 200.31 169.84 197.23 167.04 193.63
  C 166.28 192.65 165.02 192.34 164.30 191.70
  Q 140.66 170.63 116.63 149.99
  A 0.67 0.66 -62.6 0 1 116.42 149.31
  L 116.50 149.04
  Q 118.10 148.08 120.10 148.60
  A 0.46 0.46 0.0 0 0 120.53 147.83
  Q 60.65 90.72 0.63 33.37
  Q 0.31 33.06 0.00 32.69
  L 0.00 0.00
  Z"
/>
<path fill="#ff6f57" d="
  M 57.31 0.00
  L 186.81 0.00
  Q 187.47 1.66 190.46 4.54
  Q 237.23 49.58 361.75 171.75
  Q 369.61 179.47 376.25 185.02
  C 411.97 214.88 444.32 248.58 478.92 279.72
  Q 485.93 286.03 492.04 293.25
  L 476.46 310.25
  C 458.54 329.48 440.49 348.60 422.77 368.02
  Q 417.28 374.04 411.50 379.79
  L 409.20 379.16
  A 0.85 0.84 -60.2 0 0 408.37 379.39
  L 405.71 382.15
  Q 405.27 382.61 405.41 381.98
  C 405.86 379.89 414.42 371.64 417.46 368.51
  C 418.83 367.09 419.73 365.15 421.07 363.54
  A 1.78 1.76 11.7 0 1 421.95 362.97
  Q 424.08 362.37 425.63 360.72
  Q 425.85 360.49 425.53 360.50
  L 425.25 360.50
  A 0.35 0.34 64.9 0 1 425.02 360.41
  Q 361.35 296.87 297.67 233.33
  C 291.10 226.77 283.85 218.13 276.69 211.31
  Q 172.85 112.27 69.08 13.17
  Q 63.23 7.58 57.51 1.87
  A 1.27 1.26 -68.1 0 1 57.14 1.00
  Q 57.13 0.46 57.31 0.00
  Z"
/>
<path fill="#ff8e80" d="
  M 186.81 0.00
  L 265.35 -0.03
  Q 324.32 71.41 383.03 143.06
  C 385.58 146.18 389.04 148.80 391.93 151.81
  Q 434.00 195.60 476.10 239.36
  C 477.91 241.24 480.20 244.10 482.39 246.19
  Q 486.22 249.82 487.35 251.05
  Q 498.09 262.72 509.24 273.90
  A 0.54 0.54 0.0 0 1 509.26 274.64
  L 492.76 292.72
  L 492.04 293.25
  Q 485.93 286.03 478.92 279.72
  C 444.32 248.58 411.97 214.88 376.25 185.02
  Q 369.61 179.47 361.75 171.75
  Q 237.23 49.58 190.46 4.54
  Q 187.47 1.66 186.81 0.00
  Z"
/>
<path fill="#3ef4c4" d="
  M 265.35 -0.03
  L 1315.00 0.00
  L 1315.00 1593.00
  L 0.00 1593.00
  L 0.00 32.69
  Q 0.31 33.06 0.63 33.37
  Q 60.65 90.72 120.53 147.83
  A 0.46 0.46 0.0 0 1 120.10 148.60
  Q 118.10 148.08 116.50 149.04
  L 114.79 149.13
  Q 112.80 149.24 113.89 150.90
  C 119.22 159.06 127.84 163.87 134.71 170.58
  C 141.46 177.18 148.92 183.03 155.50 189.66
  Q 159.57 193.76 163.76 197.74
  C 166.58 200.43 169.97 202.22 172.24 204.29
  Q 188.53 219.11 204.80 233.96
  C 206.50 235.51 208.62 236.43 210.16 237.96
  Q 214.88 242.67 219.60 247.38
  C 221.78 249.56 225.23 251.28 227.24 253.76
  Q 230.23 257.44 233.75 259.09
  A 1.49 1.47 89.2 0 1 234.45 259.78
  Q 236.05 263.01 239.58 263.72
  A 1.33 1.29 -12.3 0 1 240.34 264.19
  L 243.11 267.78
  A 1.96 1.90 80.7 0 0 243.93 268.39
  Q 247.04 269.64 248.81 271.45
  Q 254.62 277.42 260.05 281.77
  C 269.66 289.46 278.44 297.37 287.79 306.71
  Q 291.84 310.76 297.67 315.03
  C 301.38 317.74 304.09 321.54 307.88 324.59
  C 314.85 330.20 321.47 336.23 328.35 341.92
  C 333.36 346.07 338.30 351.65 343.86 356.04
  C 351.68 362.22 358.34 368.41 365.20 375.31
  Q 368.79 378.93 373.09 381.75
  Q 374.33 382.56 375.61 384.12
  C 377.43 386.33 381.12 388.36 382.39 389.47
  C 386.48 393.00 395.02 402.38 400.53 396.02
  C 403.10 393.05 411.40 381.36 415.41 388.83
  C 415.83 389.61 417.21 390.33 417.68 390.83
  Q 423.26 396.82 429.73 401.82
  Q 430.10 402.10 430.56 402.18
  L 432.22 402.47
  A 0.92 0.92 0.0 0 1 432.91 403.03
  Q 433.36 404.17 434.57 404.40
  A 1.46 1.45 -15.9 0 1 435.35 404.83
  Q 438.01 407.64 441.02 410.09
  Q 444.08 412.57 446.64 415.32
  Q 450.04 418.98 453.97 422.07
  C 455.77 423.48 456.95 425.49 458.85 427.01
  A 1.27 1.26 60.8 0 0 459.75 427.27
  Q 462.10 427.02 464.29 426.07
  C 465.53 425.54 466.30 424.03 467.75 425.65
  C 469.56 427.66 469.74 430.74 472.12 432.24
  A 1.68 1.61 -87.4 0 1 472.75 432.96
  Q 479.93 448.90 489.89 463.25
  C 490.17 463.65 489.75 463.81 490.60 464.17
  A 1.41 1.41 0.0 0 1 491.26 464.77
  C 492.09 466.33 495.22 471.70 496.80 472.20
  Q 497.31 472.36 497.00 471.93
  Q 496.23 470.88 496.25 469.71
  C 503.77 478.27 510.48 483.51 517.96 490.27
  Q 518.32 490.60 518.80 490.72
  C 520.07 491.02 520.97 492.28 521.84 492.83
  C 525.38 495.08 527.93 499.19 531.00 501.23
  Q 535.64 504.30 538.33 506.50
  C 540.30 508.11 541.76 510.77 543.85 512.63
  C 547.05 515.46 549.67 518.03 552.66 520.65
  C 553.93 521.76 554.79 523.52 556.43 524.57
  Q 559.18 526.31 559.25 526.38
  Q 564.15 530.43 567.89 535.53
  C 570.57 540.61 569.15 551.53 569.05 557.39
  C 568.99 560.63 569.77 564.11 569.96 567.50
  L 572.79 658.50
  Q 460.70 658.50 348.80 658.50
  C 347.98 658.50 346.82 658.80 345.88 658.87
  A 1.30 1.26 -68.9 0 0 345.04 659.26
  Q 307.25 698.64 268.88 737.43
  Q 268.36 737.96 266.94 738.77
  Q 265.37 739.66 265.77 741.08
  L 265.78 797.16
  A 0.52 0.51 0.6 0 0 266.29 797.67
  Q 284.52 798.22 302.66 797.73
  C 303.18 797.71 303.55 797.97 303.54 798.50
  C 304.37 853.19 303.38 898.21 303.54 969.00
  Q 303.49 1040.47 303.33 1111.94
  Q 303.32 1115.34 303.21 1118.75
  Q 300.32 1118.01 298.98 1120.01
  C 292.47 1129.69 284.05 1144.31 276.16 1156.27
  C 250.29 1195.49 228.80 1231.68 200.32 1275.07
  Q 196.89 1280.29 191.48 1289.70
  C 186.89 1297.71 180.86 1304.34 176.59 1312.54
  Q 173.59 1318.30 169.36 1323.72
  A 1.41 1.40 -49.7 0 0 169.51 1325.63
  Q 169.67 1325.77 170.56 1325.77
  Q 658.70 1326.00 1146.83 1326.00
  A 0.95 0.92 -26.5 0 1 1147.37 1326.17
  Q 1147.58 1326.32 1147.84 1326.28
  Q 1148.30 1326.22 1147.90 1325.99
  Q 1146.48 1325.15 1145.76 1323.97
  C 1105.56 1258.43 1062.72 1186.36 1021.25 1117.43
  C 1018.79 1113.34 1016.31 1111.12 1011.54 1113.00
  Q 1011.40 1110.63 1011.39 1108.25
  Q 1011.23 974.12 1011.21 840.00
  L 1011.50 798.29
  L 1048.32 798.10
  A 0.52 0.51 -0.0 0 0 1048.83 797.60
  C 1049.39 779.01 1049.13 760.47 1049.27 741.88
  A 1.19 1.18 22.4 0 0 1048.90 741.00
  L 1047.25 739.46
  C 1026.06 716.52 1002.94 693.55 988.06 678.18
  Q 979.46 669.29 970.68 660.56
  C 968.44 658.33 967.26 658.29 964.24 658.31
  C 890.41 658.75 816.58 658.40 742.75 658.79
  C 741.56 634.13 740.09 608.32 739.72 583.08
  Q 739.71 582.59 739.46 582.16
  C 738.86 581.15 739.82 575.63 739.79 574.00
  C 743.02 569.82 742.42 565.97 743.81 561.51
  C 745.48 556.14 746.47 550.77 748.39 545.31
  Q 749.41 542.43 749.93 539.39
  Q 750.01 538.90 750.29 538.50
  L 750.84 537.69
  C 753.14 536.69 753.12 535.30 753.73 533.27
  C 755.67 526.80 757.56 520.37 759.20 513.82
  Q 760.27 509.54 762.17 505.49
  A 1.52 1.47 53.0 0 0 762.29 504.54
  C 761.62 501.07 762.49 497.76 761.62 494.64
  C 759.72 487.85 755.07 481.23 750.87 474.99
  Q 750.20 474.00 746.17 467.14
  Q 742.66 461.17 737.32 456.58
  Q 736.77 453.74 735.04 451.50
  L 733.93 428.29
  A 1.14 1.14 0.0 0 0 732.70 427.21
  L 718.02 428.37
  L 714.50 427.24
  A 1.55 1.52 80.2 0 1 713.72 426.68
  Q 711.18 423.12 705.12 417.13
  Q 698.39 410.47 683.09 390.69
  Q 680.64 387.52 677.55 385.16
  C 666.88 376.99 659.25 371.01 648.32 368.41
  Q 642.00 366.91 623.30 363.10
  C 622.44 362.93 621.08 363.10 620.14 362.46
  A 1.27 1.25 58.6 0 0 619.26 362.24
  C 615.78 362.65 612.29 361.22 609.96 360.86
  Q 593.92 358.39 578.10 354.75
  Q 576.48 354.38 573.82 354.11
  C 571.04 353.83 568.90 353.08 565.96 353.03
  C 563.64 352.99 561.88 352.02 559.58 352.02
  Q 558.18 352.03 556.77 351.76
  A 0.43 0.43 0.0 0 1 556.42 351.29
  C 556.58 349.56 534.74 346.96 532.46 346.78
  L 537.81 339.96
  A 0.92 0.91 -48.1 0 0 537.75 338.76
  L 492.76 292.72
  L 509.26 274.64
  A 0.54 0.54 0.0 0 0 509.24 273.90
  Q 498.09 262.72 487.35 251.05
  Q 486.22 249.82 482.39 246.19
  C 480.20 244.10 477.91 241.24 476.10 239.36
  Q 434.00 195.60 391.93 151.81
  C 389.04 148.80 385.58 146.18 383.03 143.06
  Q 324.32 71.41 265.35 -0.03
  Z"
/>
<path fill="#2bd5a5" d="
  M 116.50 149.04
  L 116.42 149.31
  A 0.67 0.66 -62.6 0 0 116.63 149.99
  Q 140.66 170.63 164.30 191.70
  C 165.02 192.34 166.28 192.65 167.04 193.63
  C 169.84 197.23 174.24 200.31 176.54 202.42
  Q 211.06 234.18 244.90 266.65
  A 0.96 0.96 0.0 0 0 245.81 266.88
  L 247.34 266.46
  A 1.00 0.99 -32.3 0 1 248.25 266.66
  C 290.18 302.98 323.10 333.29 359.48 364.67
  C 370.18 373.90 380.17 383.21 390.48 392.52
  Q 392.60 394.44 394.85 395.81
  A 1.44 1.42 -52.4 0 0 396.63 395.57
  L 409.89 381.61
  Q 412.80 383.78 415.63 386.01
  C 422.09 391.09 428.63 395.51 434.69 401.15
  C 437.10 403.40 439.89 407.38 443.89 409.70
  A 1.28 1.24 9.3 0 1 444.49 410.51
  Q 444.77 411.70 445.90 411.94
  A 1.22 1.19 -7.3 0 1 446.72 412.56
  Q 448.05 415.07 449.92 416.34
  Q 455.59 420.18 459.37 424.39
  A 1.21 1.21 0.0 0 0 460.27 424.79
  Q 462.89 424.81 464.98 423.04
  A 1.11 1.09 30.1 0 1 465.90 422.80
  L 469.25 423.46
  Q 470.13 425.73 471.45 427.70
  C 473.82 431.24 474.88 434.83 477.09 438.38
  C 477.97 439.80 479.56 440.57 480.11 442.53
  A 1.48 1.45 11.4 0 0 480.63 443.30
  Q 481.72 444.16 482.51 446.01
  C 483.86 449.16 487.36 453.08 489.24 456.75
  Q 492.60 463.32 496.25 469.71
  Q 496.23 470.88 497.00 471.93
  Q 497.31 472.36 496.80 472.20
  C 495.22 471.70 492.09 466.33 491.26 464.77
  A 1.41 1.41 0.0 0 0 490.60 464.17
  C 489.75 463.81 490.17 463.65 489.89 463.25
  Q 479.93 448.90 472.75 432.96
  A 1.68 1.61 -87.4 0 0 472.12 432.24
  C 469.74 430.74 469.56 427.66 467.75 425.65
  C 466.30 424.03 465.53 425.54 464.29 426.07
  Q 462.10 427.02 459.75 427.27
  A 1.27 1.26 60.8 0 1 458.85 427.01
  C 456.95 425.49 455.77 423.48 453.97 422.07
  Q 450.04 418.98 446.64 415.32
  Q 444.08 412.57 441.02 410.09
  Q 438.01 407.64 435.35 404.83
  A 1.46 1.45 -15.9 0 0 434.57 404.40
  Q 433.36 404.17 432.91 403.03
  A 0.92 0.92 0.0 0 0 432.22 402.47
  L 430.56 402.18
  Q 430.10 402.10 429.73 401.82
  Q 423.26 396.82 417.68 390.83
  C 417.21 390.33 415.83 389.61 415.41 388.83
  C 411.40 381.36 403.10 393.05 400.53 396.02
  C 395.02 402.38 386.48 393.00 382.39 389.47
  C 381.12 388.36 377.43 386.33 375.61 384.12
  Q 374.33 382.56 373.09 381.75
  Q 368.79 378.93 365.20 375.31
  C 358.34 368.41 351.68 362.22 343.86 356.04
  C 338.30 351.65 333.36 346.07 328.35 341.92
  C 321.47 336.23 314.85 330.20 307.88 324.59
  C 304.09 321.54 301.38 317.74 297.67 315.03
  Q 291.84 310.76 287.79 306.71
  C 278.44 297.37 269.66 289.46 260.05 281.77
  Q 254.62 277.42 248.81 271.45
  Q 247.04 269.64 243.93 268.39
  A 1.96 1.90 80.7 0 1 243.11 267.78
  L 240.34 264.19
  A 1.33 1.29 -12.3 0 0 239.58 263.72
  Q 236.05 263.01 234.45 259.78
  A 1.49 1.47 89.2 0 0 233.75 259.09
  Q 230.23 257.44 227.24 253.76
  C 225.23 251.28 221.78 249.56 219.60 247.38
  Q 214.88 242.67 210.16 237.96
  C 208.62 236.43 206.50 235.51 204.80 233.96
  Q 188.53 219.11 172.24 204.29
  C 169.97 202.22 166.58 200.43 163.76 197.74
  Q 159.57 193.76 155.50 189.66
  C 148.92 183.03 141.46 177.18 134.71 170.58
  C 127.84 163.87 119.22 159.06 113.89 150.90
  Q 112.80 149.24 114.79 149.13
  L 116.50 149.04
  Z"
/>
<path fill="#ffffff" d="
  M 492.76 292.72
  L 537.75 338.76
  A 0.92 0.91 -48.1 0 1 537.81 339.96
  L 532.46 346.78
  L 525.21 354.50
  C 523.27 352.27 521.51 350.10 519.31 348.10
  C 507.04 336.92 495.06 325.56 482.59 314.55
  C 480.71 312.88 478.50 311.84 476.46 310.25
  L 492.04 293.25
  L 492.76 292.72
  Z"
/>
<path fill="#d3e1f3" d="
  M 476.46 310.25
  C 478.50 311.84 480.71 312.88 482.59 314.55
  C 495.06 325.56 507.04 336.92 519.31 348.10
  C 521.51 350.10 523.27 352.27 525.21 354.50
  Q 521.96 358.24 518.83 362.09
  C 517.82 363.34 517.40 364.89 516.05 366.18
  Q 514.20 367.95 514.15 368.01
  Q 498.79 385.44 483.61 403.02
  C 482.17 404.69 480.73 406.95 479.07 408.78
  Q 478.74 409.15 478.26 409.31
  C 475.51 410.22 474.56 412.83 473.05 415.04
  C 471.00 418.02 467.87 418.63 469.25 423.46
  L 465.90 422.80
  A 1.11 1.09 30.1 0 0 464.98 423.04
  Q 462.89 424.81 460.27 424.79
  A 1.21 1.21 0.0 0 1 459.37 424.39
  Q 455.59 420.18 449.92 416.34
  Q 448.05 415.07 446.72 412.56
  A 1.22 1.19 -7.3 0 0 445.90 411.94
  Q 444.77 411.70 444.49 410.51
  A 1.28 1.24 9.3 0 0 443.89 409.70
  C 439.89 407.38 437.10 403.40 434.69 401.15
  C 428.63 395.51 422.09 391.09 415.63 386.01
  Q 412.80 383.78 409.89 381.61
  L 411.50 379.79
  Q 417.28 374.04 422.77 368.02
  C 440.49 348.60 458.54 329.48 476.46 310.25
  Z"
/>
<path fill="#ffc177" d="
  M 532.46 346.78
  C 534.74 346.96 556.58 349.56 556.42 351.29
  A 0.43 0.43 0.0 0 0 556.77 351.76
  Q 558.18 352.03 559.58 352.02
  C 561.88 352.02 563.64 352.99 565.96 353.03
  C 568.90 353.08 571.04 353.83 573.82 354.11
  Q 576.48 354.38 578.10 354.75
  Q 593.92 358.39 609.96 360.86
  C 612.29 361.22 615.78 362.65 619.26 362.24
  A 1.27 1.25 58.6 0 1 620.14 362.46
  C 621.08 363.10 622.44 362.93 623.30 363.10
  Q 642.00 366.91 648.32 368.41
  C 659.25 371.01 666.88 376.99 677.55 385.16
  Q 680.64 387.52 683.09 390.69
  Q 698.39 410.47 705.12 417.13
  Q 711.18 423.12 713.72 426.68
  A 1.55 1.52 80.2 0 0 714.50 427.24
  L 718.02 428.37
  L 692.25 431.79
  Q 690.21 431.82 688.85 430.56
  A 1.19 1.17 -24.2 0 0 687.99 430.24
  C 683.46 430.42 679.48 431.47 674.48 430.94
  Q 670.75 430.55 668.00 430.70
  C 648.38 431.79 628.87 433.71 609.19 434.54
  C 595.74 435.10 582.15 436.35 568.75 437.25
  A 0.56 0.56 0.0 0 0 568.28 438.04
  Q 571.83 445.81 576.21 452.50
  Q 591.58 477.85 608.60 502.11
  C 613.61 509.26 621.87 520.60 623.68 529.08
  C 626.99 544.59 615.98 554.45 601.50 555.29
  C 599.82 554.72 598.22 554.95 596.71 554.11
  C 586.89 548.63 578.64 540.65 569.71 535.06
  Q 568.78 534.47 567.89 535.53
  Q 564.15 530.43 559.25 526.38
  Q 559.18 526.31 556.43 524.57
  C 554.79 523.52 553.93 521.76 552.66 520.65
  C 549.67 518.03 547.05 515.46 543.85 512.63
  C 541.76 510.77 540.30 508.11 538.33 506.50
  Q 535.64 504.30 531.00 501.23
  C 527.93 499.19 525.38 495.08 521.84 492.83
  C 520.97 492.28 520.07 491.02 518.80 490.72
  Q 518.32 490.60 517.96 490.27
  C 510.48 483.51 503.77 478.27 496.25 469.71
  Q 492.60 463.32 489.24 456.75
  C 487.36 453.08 483.86 449.16 482.51 446.01
  Q 481.72 444.16 480.63 443.30
  A 1.48 1.45 11.4 0 1 480.11 442.53
  C 479.56 440.57 477.97 439.80 477.09 438.38
  C 474.88 434.83 473.82 431.24 471.45 427.70
  Q 470.13 425.73 469.25 423.46
  C 467.87 418.63 471.00 418.02 473.05 415.04
  C 474.56 412.83 475.51 410.22 478.26 409.31
  Q 478.74 409.15 479.07 408.78
  C 480.73 406.95 482.17 404.69 483.61 403.02
  Q 498.79 385.44 514.15 368.01
  Q 514.20 367.95 516.05 366.18
  C 517.40 364.89 517.82 363.34 518.83 362.09
  Q 521.96 358.24 525.21 354.50
  L 532.46 346.78
  Z"
/>
<path fill="#ffffff" d="
  M 735.04 451.50
  Q 735.69 461.73 735.94 481.56
  Q 736.18 501.15 738.96 559.93
  Q 739.29 566.97 739.79 574.00
  C 739.82 575.63 738.86 581.15 739.46 582.16
  Q 739.71 582.59 739.72 583.08
  C 740.09 608.32 741.56 634.13 742.75 658.79
  L 744.04 694.00
  L 744.22 708.00
  L 576.18 708.00
  A 0.84 0.83 -25.0 0 1 575.65 707.81
  Q 575.47 707.67 575.25 707.71
  L 574.22 693.85
  L 572.79 658.50
  L 569.96 567.50
  Q 571.44 566.33 571.96 566.23
  C 581.03 564.35 590.17 561.28 598.22 556.65
  Q 599.76 555.77 601.50 555.29
  C 615.98 554.45 626.99 544.59 623.68 529.08
  C 621.87 520.60 613.61 509.26 608.60 502.11
  Q 591.58 477.85 576.21 452.50
  L 576.47 451.71
  A 0.84 0.84 0.0 0 1 577.14 451.14
  C 580.94 450.52 584.69 449.31 588.32 448.86
  Q 631.67 443.46 670.00 436.95
  Q 680.20 435.22 692.25 431.79
  L 718.02 428.37
  L 732.70 427.21
  A 1.14 1.14 0.0 0 1 733.93 428.29
  L 735.04 451.50
  Z"
/>
<path fill="#d3e1f3" d="
  M 692.25 431.79
  Q 680.20 435.22 670.00 436.95
  Q 631.67 443.46 588.32 448.86
  C 584.69 449.31 580.94 450.52 577.14 451.14
  A 0.84 0.84 0.0 0 0 576.47 451.71
  L 576.21 452.50
  Q 571.83 445.81 568.28 438.04
  A 0.56 0.56 0.0 0 1 568.75 437.25
  C 582.15 436.35 595.74 435.10 609.19 434.54
  C 628.87 433.71 648.38 431.79 668.00 430.70
  Q 670.75 430.55 674.48 430.94
  C 679.48 431.47 683.46 430.42 687.99 430.24
  A 1.19 1.17 -24.2 0 1 688.85 430.56
  Q 690.21 431.82 692.25 431.79
  Z"
/>
<path fill="#ffc177" d="
  M 735.04 451.50
  Q 736.77 453.74 737.32 456.58
  C 742.53 464.69 747.32 473.06 752.62 481.07
  C 761.03 493.75 760.09 504.09 755.75 518.21
  Q 754.39 522.62 750.84 537.69
  L 750.29 538.50
  Q 750.01 538.90 749.93 539.39
  Q 749.41 542.43 748.39 545.31
  C 746.47 550.77 745.48 556.14 743.81 561.51
  C 742.42 565.97 743.02 569.82 739.79 574.00
  Q 739.29 566.97 738.96 559.93
  Q 736.18 501.15 735.94 481.56
  Q 735.69 461.73 735.04 451.50
  Z"
/>
<path fill="#2bd5a5" d="
  M 737.32 456.58
  Q 742.66 461.17 746.17 467.14
  Q 750.20 474.00 750.87 474.99
  C 755.07 481.23 759.72 487.85 761.62 494.64
  C 762.49 497.76 761.62 501.07 762.29 504.54
  A 1.52 1.47 53.0 0 1 762.17 505.49
  Q 760.27 509.54 759.20 513.82
  C 757.56 520.37 755.67 526.80 753.73 533.27
  C 753.12 535.30 753.14 536.69 750.84 537.69
  Q 754.39 522.62 755.75 518.21
  C 760.09 504.09 761.03 493.75 752.62 481.07
  C 747.32 473.06 742.53 464.69 737.32 456.58
  Z"
/>
<path fill="#d3e1f3" d="
  M 601.50 555.29
  Q 599.76 555.77 598.22 556.65
  C 590.17 561.28 581.03 564.35 571.96 566.23
  Q 571.44 566.33 569.96 567.50
  C 569.77 564.11 568.99 560.63 569.05 557.39
  C 569.15 551.53 570.57 540.61 567.89 535.53
  Q 568.78 534.47 569.71 535.06
  C 578.64 540.65 586.89 548.63 596.71 554.11
  C 598.22 554.95 599.82 554.72 601.50 555.29
  Z"
/>
<path fill="#5990e2" d="
  M 1047.25 739.46
  Q 1045.10 740.67 1044.44 740.68
  Q 1019.15 741.28 965.56 740.94
  Q 960.62 740.91 959.29 741.25
  L 959.24 741.16
  A 0.18 0.18 0.0 0 0 959.08 741.06
  L 356.75 741.04
  L 265.77 741.08
  Q 265.37 739.66 266.94 738.77
  Q 268.36 737.96 268.88 737.43
  Q 307.25 698.64 345.04 659.26
  A 1.30 1.26 -68.9 0 1 345.88 658.87
  C 346.82 658.80 347.98 658.50 348.80 658.50
  Q 460.70 658.50 572.79 658.50
  L 574.22 693.85
  Q 566.97 694.85 559.64 694.60
  C 558.13 694.55 555.30 694.88 554.51 695.77
  Q 549.67 701.32 544.98 707.06
  A 0.38 0.38 0.0 0 0 545.27 707.68
  Q 559.13 707.93 573.00 708.04
  Q 574.47 708.05 575.25 707.71
  Q 575.47 707.67 575.65 707.81
  A 0.84 0.83 -25.0 0 0 576.18 708.00
  L 744.22 708.00
  L 769.12 707.97
  A 0.46 0.46 0.0 0 0 769.58 707.46
  C 769.40 705.18 762.61 698.27 760.88 695.74
  A 2.08 2.08 0.0 0 0 759.07 694.83
  Q 751.59 695.15 744.04 694.00
  L 742.75 658.79
  C 816.58 658.40 890.41 658.75 964.24 658.31
  C 967.26 658.29 968.44 658.33 970.68 660.56
  Q 979.46 669.29 988.06 678.18
  C 1002.94 693.55 1026.06 716.52 1047.25 739.46
  Z"
/>
<path fill="#2b5287" d="
  M 574.22 693.85
  L 575.25 707.71
  Q 574.47 708.05 573.00 708.04
  Q 559.13 707.93 545.27 707.68
  A 0.38 0.38 0.0 0 1 544.98 707.06
  Q 549.67 701.32 554.51 695.77
  C 555.30 694.88 558.13 694.55 559.64 694.60
  Q 566.97 694.85 574.22 693.85
  Z"
/>
<path fill="#2b5287" d="
  M 744.04 694.00
  Q 751.59 695.15 759.07 694.83
  A 2.08 2.08 0.0 0 1 760.88 695.74
  C 762.61 698.27 769.40 705.18 769.58 707.46
  A 0.46 0.46 0.0 0 1 769.12 707.97
  L 744.22 708.00
  L 744.04 694.00
  Z"
/>
<path fill="#5182d1" d="
  M 1047.25 739.46
  L 1048.90 741.00
  A 1.19 1.18 22.4 0 1 1049.27 741.88
  C 1049.13 760.47 1049.39 779.01 1048.83 797.60
  A 0.52 0.51 -0.0 0 1 1048.32 798.10
  L 1011.50 798.29
  C 1001.27 796.36 992.19 797.26 978.21 797.44
  C 973.48 797.49 966.07 796.95 959.76 797.89
  A 0.46 0.45 -5.2 0 1 959.24 797.46
  Q 958.17 769.33 959.29 741.25
  Q 960.62 740.91 965.56 740.94
  Q 1019.15 741.28 1044.44 740.68
  Q 1045.10 740.67 1047.25 739.46
  Z"
/>
<path fill="#385fa3" d="
  M 356.75 741.04
  Q 356.91 741.78 356.47 742.42
  A 1.60 1.53 63.5 0 0 356.19 743.32
  L 356.05 796.99
  A 0.78 0.78 0.0 0 0 356.85 797.77
  C 366.48 797.50 377.82 798.00 385.73 798.00
  Q 668.86 798.00 951.99 798.00
  C 953.94 798.00 959.09 796.56 959.04 799.75
  Q 958.67 826.18 958.78 838.50
  A 0.95 0.95 0.0 0 1 958.34 839.30
  Q 957.44 839.87 956.38 839.34
  Q 955.93 839.12 955.44 839.15
  C 946.69 839.63 935.78 839.26 929.32 839.26
  Q 649.02 839.24 368.73 839.26
  C 365.13 839.26 360.29 839.66 356.04 839.50
  L 355.96 799.13
  A 1.46 1.46 0.0 0 0 354.44 797.67
  Q 329.79 798.66 304.56 797.79
  Q 303.99 797.77 303.54 798.50
  C 303.55 797.97 303.18 797.71 302.66 797.73
  Q 284.52 798.22 266.29 797.67
  A 0.52 0.51 0.6 0 1 265.78 797.16
  L 265.77 741.08
  L 356.75 741.04
  Z"
/>
<path fill="#4770c0" d="
  M 356.75 741.04
  L 959.08 741.06
  A 0.18 0.18 0.0 0 1 959.24 741.16
  L 959.29 741.25
  Q 958.17 769.33 959.24 797.46
  A 0.46 0.45 -5.2 0 0 959.76 797.89
  C 966.07 796.95 973.48 797.49 978.21 797.44
  C 992.19 797.26 1001.27 796.36 1011.50 798.29
  L 1011.21 840.00
  L 960.16 839.27
  A 1.24 1.23 0.9 0 0 958.91 840.47
  Q 958.54 855.24 958.51 870.75
  Q 958.22 1044.41 958.27 1218.07
  C 958.27 1225.67 958.68 1236.98 958.44 1246.47
  A 1.15 1.12 -67.4 0 0 958.77 1247.30
  C 959.76 1248.31 959.24 1249.07 958.25 1249.71
  L 357.25 1249.71
  L 356.32 1246.68
  Q 356.18 1246.22 356.20 1245.74
  C 356.47 1236.69 355.96 1226.06 355.97 1218.66
  Q 356.17 1030.54 355.73 842.42
  C 355.73 841.61 356.20 840.75 355.96 839.75
  L 356.04 839.50
  C 360.29 839.66 365.13 839.26 368.73 839.26
  Q 649.02 839.24 929.32 839.26
  C 935.78 839.26 946.69 839.63 955.44 839.15
  Q 955.93 839.12 956.38 839.34
  Q 957.44 839.87 958.34 839.30
  A 0.95 0.95 0.0 0 0 958.78 838.50
  Q 958.67 826.18 959.04 799.75
  C 959.09 796.56 953.94 798.00 951.99 798.00
  Q 668.86 798.00 385.73 798.00
  C 377.82 798.00 366.48 797.50 356.85 797.77
  A 0.78 0.78 0.0 0 1 356.05 796.99
  L 356.19 743.32
  A 1.60 1.53 63.5 0 1 356.47 742.42
  Q 356.91 741.78 356.75 741.04
  Z
  M 860.21 915.52
  A 0.74 0.74 0.0 0 0 859.47 914.78
  L 455.91 914.78
  A 0.74 0.74 0.0 0 0 455.17 915.52
  L 455.17 1156.70
  A 0.74 0.74 0.0 0 0 455.91 1157.44
  L 859.47 1157.44
  A 0.74 0.74 0.0 0 0 860.21 1156.70
  L 860.21 915.52
  Z"
/>
<path fill="#2b5287" d="
  M 356.04 839.50
  L 355.96 839.75
  L 306.79 839.96
  A 0.52 0.51 -3.1 0 0 306.28 840.52
  C 307.49 854.94 306.04 870.50 306.05 883.10
  C 306.07 901.26 306.70 919.65 306.72 937.56
  Q 306.79 1018.45 306.73 1099.31
  A 1.11 1.06 -31.6 0 1 306.59 1099.84
  Q 305.74 1101.21 304.64 1100.31
  A 0.23 0.22 -60.0 0 0 304.28 1100.41
  L 304.11 1100.91
  Q 303.69 1102.13 303.69 1100.84
  L 303.54 969.00
  C 303.38 898.21 304.37 853.19 303.54 798.50
  Q 303.99 797.77 304.56 797.79
  Q 329.79 798.66 354.44 797.67
  A 1.46 1.46 0.0 0 1 355.96 799.13
  L 356.04 839.50
  Z"
/>
<path fill="#5182d1" d="
  M 1011.21 840.00
  Q 1011.23 974.12 1011.39 1108.25
  Q 1011.40 1110.63 1011.54 1113.00
  C 1010.71 1158.25 1010.90 1203.55 1011.37 1248.83
  A 0.57 0.57 0.0 0 1 1010.80 1249.41
  L 958.25 1249.71
  C 959.24 1249.07 959.76 1248.31 958.77 1247.30
  A 1.15 1.12 -67.4 0 1 958.44 1246.47
  C 958.68 1236.98 958.27 1225.67 958.27 1218.07
  Q 958.22 1044.41 958.51 870.75
  Q 958.54 855.24 958.91 840.47
  A 1.24 1.23 0.9 0 1 960.16 839.27
  L 1011.21 840.00
  Z"
/>
<path fill="#385fa3" d="
  M 355.96 839.75
  C 356.20 840.75 355.73 841.61 355.73 842.42
  Q 356.17 1030.54 355.97 1218.66
  C 355.96 1226.06 356.47 1236.69 356.20 1245.74
  Q 356.18 1246.22 356.32 1246.68
  L 357.25 1249.71
  Q 336.15 1249.81 315.05 1249.72
  C 312.40 1249.71 308.06 1249.25 304.40 1249.75
  A 0.80 0.79 86.2 0 1 303.50 1248.96
  Q 303.51 1186.21 303.49 1123.18
  C 303.49 1121.89 303.11 1120.25 303.21 1118.75
  Q 303.32 1115.34 303.33 1111.94
  Q 303.49 1040.47 303.54 969.00
  L 303.69 1100.84
  Q 303.69 1102.13 304.11 1100.91
  L 304.28 1100.41
  A 0.23 0.22 -60.0 0 1 304.64 1100.31
  Q 305.74 1101.21 306.59 1099.84
  A 1.11 1.06 -31.6 0 0 306.73 1099.31
  Q 306.79 1018.45 306.72 937.56
  C 306.70 919.65 306.07 901.26 306.05 883.10
  C 306.04 870.50 307.49 854.94 306.28 840.52
  A 0.52 0.51 -3.1 0 1 306.79 839.96
  L 355.96 839.75
  Z"
/>
<path fill="#385fa3" d="
  M 860.21 1156.70
  A 0.74 0.74 0.0 0 1 859.47 1157.44
  L 455.91 1157.44
  A 0.74 0.74 0.0 0 1 455.17 1156.70
  L 455.17 915.52
  A 0.74 0.74 0.0 0 1 455.91 914.78
  L 859.47 914.78
  A 0.74 0.74 0.0 0 1 860.21 915.52
  L 860.21 1156.70
  Z
  M 499.25 926.79
  L 468.29 926.93
  A 1.05 1.05 0.0 0 0 467.25 927.98
  L 467.25 1145.51
  A 0.51 0.51 0.0 0 0 467.76 1146.02
  L 847.00 1145.99
  A 0.49 0.49 0.0 0 0 847.49 1145.54
  C 848.06 1139.38 847.49 1131.33 847.49 1127.15
  Q 847.50 1027.49 847.66 927.78
  A 0.53 0.53 0.0 0 0 847.15 927.25
  L 837.59 926.93
  Q 836.28 923.85 832.25 924.40
  Q 825.89 925.28 818.99 924.52
  C 811.94 923.74 804.48 924.77 798.75 924.75
  Q 685.96 924.41 573.17 924.82
  C 566.24 924.84 558.06 924.20 550.50 924.23
  C 529.12 924.30 507.83 924.08 486.37 924.98
  A 0.62 0.62 0.0 0 0 486.31 926.21
  Q 492.59 927.04 499.25 926.79
  Z"
/>
<path fill="#2b5287" d="
  M 837.59 926.93
  Q 820.36 927.05 803.33 927.00
  C 798.58 926.99 755.91 926.29 755.19 926.90
  A 0.81 0.77 23.5 0 1 754.67 927.09
  C 668.60 926.70 597.09 926.46 520.93 927.27
  C 514.62 927.34 506.53 926.41 499.25 926.79
  Q 492.59 927.04 486.31 926.21
  A 0.62 0.62 0.0 0 1 486.37 924.98
  C 507.83 924.08 529.12 924.30 550.50 924.23
  C 558.06 924.20 566.24 924.84 573.17 924.82
  Q 685.96 924.41 798.75 924.75
  C 804.48 924.77 811.94 923.74 818.99 924.52
  Q 825.89 925.28 832.25 924.40
  Q 836.28 923.85 837.59 926.93
  Z"
/>
<path fill="#d3e1f3" d="
  M 499.25 926.79
  C 506.53 926.41 514.62 927.34 520.93 927.27
  C 597.09 926.46 668.60 926.70 754.67 927.09
  A 0.81 0.77 23.5 0 0 755.19 926.90
  C 755.91 926.29 798.58 926.99 803.33 927.00
  Q 820.36 927.05 837.59 926.93
  L 847.15 927.25
  A 0.53 0.53 0.0 0 1 847.66 927.78
  Q 847.50 1027.49 847.49 1127.15
  C 847.49 1131.33 848.06 1139.38 847.49 1145.54
  A 0.49 0.49 0.0 0 1 847.00 1145.99
  L 467.76 1146.02
  A 0.51 0.51 0.0 0 1 467.25 1145.51
  L 467.25 927.98
  A 1.05 1.05 0.0 0 1 468.29 926.93
  L 499.25 926.79
  Z
  M 840.99 935.74
  A 1.26 1.26 0.0 0 0 839.73 934.48
  L 475.83 934.48
  A 1.26 1.26 0.0 0 0 474.57 935.74
  L 474.57 1137.18
  A 1.26 1.26 0.0 0 0 475.83 1138.44
  L 839.73 1138.44
  A 1.26 1.26 0.0 0 0 840.99 1137.18
  L 840.99 935.74
  Z"
/>
<path fill="#eef5fe" d="
  M 840.99 1137.18
  A 1.26 1.26 0.0 0 1 839.73 1138.44
  L 475.83 1138.44
  A 1.26 1.26 0.0 0 1 474.57 1137.18
  L 474.57 935.74
  A 1.26 1.26 0.0 0 1 475.83 934.48
  L 839.73 934.48
  A 1.26 1.26 0.0 0 1 840.99 935.74
  L 840.99 1137.18
  Z
  M 520.84 973.19
  A 0.35 0.35 0.0 0 1 520.50 972.84
  L 520.50 967.00
  A 0.35 0.35 0.0 0 1 520.85 966.65
  L 541.34 966.80
  A 0.35 0.35 0.0 0 0 541.69 966.47
  L 542.16 957.88
  A 0.35 0.35 0.0 0 0 541.81 957.51
  L 509.10 957.83
  A 0.35 0.35 0.0 0 0 508.75 958.18
  L 508.75 998.61
  A 0.35 0.35 0.0 0 0 509.10 998.96
  L 542.24 999.02
  A 0.35 0.35 0.0 0 0 542.59 998.66
  L 542.46 989.61
  A 0.35 0.35 0.0 0 0 542.12 989.27
  L 520.61 989.26
  A 0.35 0.35 0.0 0 1 520.26 988.88
  L 520.71 983.07
  A 0.35 0.35 0.0 0 1 521.05 982.75
  L 539.61 982.75
  A 0.35 0.35 0.0 0 0 539.96 982.40
  L 539.99 973.91
  A 0.35 0.35 0.0 0 0 539.65 973.56
  L 520.84 973.19
  Z
  M 561.05 988.28
  L 560.87 958.34
  A 0.54 0.53 0.6 0 0 560.34 957.81
  L 549.42 957.61
  A 0.54 0.54 0.0 0 0 548.87 958.15
  L 548.70 998.42
  A 0.51 0.51 0.0 0 0 549.23 998.93
  Q 563.53 998.27 577.83 998.87
  A 0.46 0.46 0.0 0 0 578.31 998.41
  L 578.33 989.17
  A 0.42 0.41 90.0 0 0 577.92 988.75
  L 561.53 988.75
  A 0.48 0.48 0.0 0 1 561.05 988.28
  Z
  M 595.28 982.77
  L 613.63 982.74
  A 0.62 0.62 0.0 0 0 614.25 982.12
  L 614.25 974.11
  A 0.55 0.54 0.5 0 0 613.71 973.57
  L 595.86 973.52
  A 0.87 0.87 0.0 0 1 594.99 972.67
  L 594.85 967.41
  A 0.60 0.60 0.0 0 1 595.44 966.80
  L 615.76 966.52
  A 0.45 0.45 0.0 0 0 616.21 966.07
  L 616.24 958.01
  A 0.50 0.50 0.0 0 0 615.74 957.51
  L 583.77 957.52
  A 0.55 0.54 -87.7 0 0 583.23 958.03
  C 582.32 969.91 583.03 984.85 583.04 998.22
  A 0.49 0.48 90.0 0 0 583.52 998.71
  L 616.15 998.94
  A 0.60 0.59 0.0 0 0 616.75 998.35
  L 616.75 989.85
  A 0.58 0.58 0.0 0 0 616.17 989.27
  L 595.62 989.24
  A 0.66 0.66 0.0 0 1 594.96 988.62
  L 594.68 983.41
  A 0.60 0.60 0.0 0 1 595.28 982.77
  Z
  M 672.55 967.05
  A 0.40 0.40 0.0 0 1 672.95 967.45
  L 673.03 998.15
  A 0.40 0.40 0.0 0 0 673.42 998.54
  L 684.02 998.68
  A 0.40 0.40 0.0 0 0 684.42 998.28
  L 684.81 967.24
  A 0.40 0.40 0.0 0 1 685.21 966.84
  L 696.30 966.91
  A 0.40 0.40 0.0 0 0 696.70 966.51
  L 696.78 957.97
  A 0.40 0.40 0.0 0 0 696.38 957.57
  L 661.13 957.52
  A 0.40 0.40 0.0 0 0 660.74 957.94
  L 661.25 966.61
  A 0.40 0.40 0.0 0 0 661.64 966.98
  L 672.55 967.05
  Z
  M 713.02 958.01
  A 0.27 0.27 0.0 0 0 712.75 957.74
  L 701.27 957.74
  A 0.27 0.27 0.0 0 0 701.00 958.01
  L 701.00 998.33
  A 0.27 0.27 0.0 0 0 701.27 998.60
  L 712.75 998.60
  A 0.27 0.27 0.0 0 0 713.02 998.33
  L 713.02 958.01
  Z
  M 656.75 962.21
  Q 654.63 958.31 650.00 958.79
  C 636.58 954.92 622.72 961.16 621.20 975.76
  C 618.90 997.89 644.93 1005.79 659.25 991.44
  A 0.49 0.48 -44.6 0 0 659.26 990.76
  L 653.25 984.65
  A 0.78 0.78 0.0 0 0 652.16 984.62
  C 636.64 998.91 624.78 974.14 639.14 967.67
  Q 644.63 965.20 650.15 969.87
  Q 651.69 971.18 652.66 971.65
  A 0.81 0.80 -58.0 0 0 653.64 971.42
  L 658.82 964.84
  A 0.70 0.69 -50.7 0 0 658.73 963.88
  L 656.75 962.21
  Z
  M 762.5566 977.7408
  A 22.30 20.76 -1.0 0 0 739.8977 957.3732
  A 22.30 20.76 -1.0 0 0 717.9634 978.5192
  A 22.30 20.76 -1.0 0 0 740.6223 998.8868
  A 22.30 20.76 -1.0 0 0 762.5566 977.7408
  Z
  M 778.31 975.83
  A 0.23 0.23 0.0 0 1 778.72 975.69
  Q 786.46 985.34 793.74 995.26
  Q 795.10 997.11 796.88 998.65
  A 1.16 1.13 64.1 0 0 797.69 998.94
  L 805.79 998.68
  A 0.47 0.47 0.0 0 0 806.25 998.21
  L 806.25 958.38
  A 0.63 0.63 0.0 0 0 805.62 957.75
  L 796.30 957.75
  A 0.61 0.61 0.0 0 0 795.69 958.36
  L 795.74 979.75
  A 0.55 0.54 -63.6 0 1 794.76 980.08
  L 778.35 958.19
  A 1.10 1.08 71.2 0 0 777.48 957.75
  L 768.11 957.75
  A 0.65 0.64 -0.0 0 0 767.46 958.39
  L 767.62 998.18
  A 0.57 0.56 90.0 0 0 768.18 998.75
  L 777.97 998.75
  A 0.50 0.50 0.0 0 0 778.47 998.24
  L 778.31 975.83
  Z
  M 603.02 1066.13
  C 601.34 1092.75 618.81 1114.51 645.20 1118.35
  C 669.14 1121.82 692.94 1112.68 703.04 1090.22
  C 708.29 1078.54 708.68 1065.61 704.61 1053.58
  C 688.19 1005.10 606.46 1011.77 603.02 1066.13
  Z
  M 578.28 1067.59
  Q 576.67 1066.67 578.38 1065.95
  Q 593.59 1059.55 592.40 1043.23
  C 591.35 1028.93 573.61 1022.37 561.49 1021.96
  Q 546.63 1021.46 509.23 1021.80
  A 0.48 0.48 0.0 0 0 508.76 1022.28
  L 508.73 1117.79
  A 0.51 0.50 89.4 0 0 509.24 1118.30
  Q 533.04 1118.29 556.80 1118.14
  C 572.58 1118.04 593.93 1112.86 595.68 1093.83
  Q 597.13 1078.05 583.81 1069.75
  C 582.22 1068.76 579.78 1068.45 578.28 1067.59
  Z
  M 761.62 1046.40
  L 746.35 1022.49
  A 1.57 1.56 -16.2 0 0 745.03 1021.77
  L 714.00 1021.76
  Q 712.90 1021.76 713.51 1022.68
  L 744.29 1068.57
  A 0.86 0.85 -44.7 0 1 744.28 1069.53
  L 710.88 1117.81
  Q 710.73 1118.03 711.00 1118.04
  L 743.30 1118.20
  A 0.85 0.84 16.5 0 0 744.01 1117.82
  L 761.39 1091.25
  A 0.62 0.62 0.0 0 1 762.42 1091.24
  Q 770.91 1103.75 779.34 1116.42
  Q 780.00 1117.42 780.64 1117.94
  A 1.45 1.44 -25.1 0 0 781.56 1118.27
  L 813.70 1118.20
  Q 814.48 1118.20 814.04 1117.56
  L 780.34 1068.21
  A 0.93 0.93 0.0 0 1 780.34 1067.17
  L 811.31 1022.15
  Q 811.61 1021.71 811.08 1021.71
  L 778.60 1021.83
  A 0.95 0.92 -73.0 0 0 777.82 1022.26
  L 762.41 1046.40
  A 0.47 0.47 0.0 0 1 761.62 1046.40
  Z"
/>
<path fill="#2b5287" d="
  M 520.84 973.19
  L 539.65 973.56
  A 0.35 0.35 0.0 0 1 539.99 973.91
  L 539.96 982.40
  A 0.35 0.35 0.0 0 1 539.61 982.75
  L 521.05 982.75
  A 0.35 0.35 0.0 0 0 520.71 983.07
  L 520.26 988.88
  A 0.35 0.35 0.0 0 0 520.61 989.26
  L 542.12 989.27
  A 0.35 0.35 0.0 0 1 542.46 989.61
  L 542.59 998.66
  A 0.35 0.35 0.0 0 1 542.24 999.02
  L 509.10 998.96
  A 0.35 0.35 0.0 0 1 508.75 998.61
  L 508.75 958.18
  A 0.35 0.35 0.0 0 1 509.10 957.83
  L 541.81 957.51
  A 0.35 0.35 0.0 0 1 542.16 957.88
  L 541.69 966.47
  A 0.35 0.35 0.0 0 1 541.34 966.80
  L 520.85 966.65
  A 0.35 0.35 0.0 0 0 520.50 967.00
  L 520.50 972.84
  A 0.35 0.35 0.0 0 0 520.84 973.19
  Z"
/>
<path fill="#2b5287" d="
  M 561.53 988.75
  L 577.92 988.75
  A 0.42 0.41 90.0 0 1 578.33 989.17
  L 578.31 998.41
  A 0.46 0.46 0.0 0 1 577.83 998.87
  Q 563.53 998.27 549.23 998.93
  A 0.51 0.51 0.0 0 1 548.70 998.42
  L 548.87 958.15
  A 0.54 0.54 0.0 0 1 549.42 957.61
  L 560.34 957.81
  A 0.54 0.53 0.6 0 1 560.87 958.34
  L 561.05 988.28
  A 0.48 0.48 0.0 0 0 561.53 988.75
  Z"
/>
<path fill="#2b5287" d="
  M 594.68 983.41
  L 594.96 988.62
  A 0.66 0.66 0.0 0 0 595.62 989.24
  L 616.17 989.27
  A 0.58 0.58 0.0 0 1 616.75 989.85
  L 616.75 998.35
  A 0.60 0.59 -0.0 0 1 616.15 998.94
  L 583.52 998.71
  A 0.49 0.48 90.0 0 1 583.04 998.22
  C 583.03 984.85 582.32 969.91 583.23 958.03
  A 0.55 0.54 -87.7 0 1 583.77 957.52
  L 615.74 957.51
  A 0.50 0.50 0.0 0 1 616.24 958.01
  L 616.21 966.07
  A 0.45 0.45 0.0 0 1 615.76 966.52
  L 595.44 966.80
  A 0.60 0.60 0.0 0 0 594.85 967.41
  L 594.99 972.67
  A 0.87 0.87 0.0 0 0 595.86 973.52
  L 613.71 973.57
  A 0.55 0.54 0.5 0 1 614.25 974.11
  L 614.25 982.12
  A 0.62 0.62 0.0 0 1 613.63 982.74
  L 595.28 982.77
  A 0.60 0.60 0.0 0 0 594.68 983.41
  Z"
/>
<path fill="#2b5287" d="
  M 672.55 967.05
  L 661.64 966.98
  A 0.40 0.40 0.0 0 1 661.25 966.61
  L 660.74 957.94
  A 0.40 0.40 0.0 0 1 661.13 957.52
  L 696.38 957.57
  A 0.40 0.40 0.0 0 1 696.78 957.97
  L 696.70 966.51
  A 0.40 0.40 0.0 0 1 696.30 966.91
  L 685.21 966.84
  A 0.40 0.40 0.0 0 0 684.81 967.24
  L 684.42 998.28
  A 0.40 0.40 0.0 0 1 684.02 998.68
  L 673.42 998.54
  A 0.40 0.40 0.0 0 1 673.03 998.15
  L 672.95 967.45
  A 0.40 0.40 0.0 0 0 672.55 967.05
  Z"
/>
<rect fill="#2b5287" x="701.00" y="957.74" width="12.02" height="40.86" rx="0.27"/>
<path fill="#2b5287" d="
  M 650.00 958.79
  L 656.75 962.21
  L 658.73 963.88
  A 0.70 0.69 -50.7 0 1 658.82 964.84
  L 653.64 971.42
  A 0.81 0.80 -58.0 0 1 652.66 971.65
  Q 651.69 971.18 650.15 969.87
  Q 644.63 965.20 639.14 967.67
  C 624.78 974.14 636.64 998.91 652.16 984.62
  A 0.78 0.78 0.0 0 1 653.25 984.65
  L 659.26 990.76
  A 0.49 0.48 -44.6 0 1 659.25 991.44
  C 644.93 1005.79 618.90 997.89 621.20 975.76
  C 622.72 961.16 636.58 954.92 650.00 958.79
  Z"
/>
<path fill="#2b5287" d="
  M 762.5566 977.7408
  A 22.30 20.76 -1.0 0 1 740.6223 998.8868
  A 22.30 20.76 -1.0 0 1 717.9634 978.5192
  A 22.30 20.76 -1.0 0 1 739.8977 957.3732
  A 22.30 20.76 -1.0 0 1 762.5566 977.7408
  Z
  M 740.6796 989.3918
  A 11.19 10.37 87.8 0 0 750.6124 977.8119
  A 11.19 10.37 87.8 0 0 739.8204 967.0282
  A 11.19 10.37 87.8 0 0 729.8876 978.6081
  A 11.19 10.37 87.8 0 0 740.6796 989.3918
  Z"
/>
<path fill="#2b5287" d="
  M 778.31 975.83
  L 778.47 998.24
  A 0.50 0.50 0.0 0 1 777.97 998.75
  L 768.18 998.75
  A 0.57 0.56 -90.0 0 1 767.62 998.18
  L 767.46 958.39
  A 0.65 0.64 0.0 0 1 768.11 957.75
  L 777.48 957.75
  A 1.10 1.08 71.2 0 1 778.35 958.19
  L 794.76 980.08
  A 0.55 0.54 -63.6 0 0 795.74 979.75
  L 795.69 958.36
  A 0.61 0.61 0.0 0 1 796.30 957.75
  L 805.62 957.75
  A 0.63 0.63 0.0 0 1 806.25 958.38
  L 806.25 998.21
  A 0.47 0.47 0.0 0 1 805.79 998.68
  L 797.69 998.94
  A 1.16 1.13 64.1 0 1 796.88 998.65
  Q 795.10 997.11 793.74 995.26
  Q 786.46 985.34 778.72 975.69
  A 0.23 0.23 0.0 0 0 778.31 975.83
  Z"
/>
<path fill="#d3e1f3" d="
  M 650.00 958.79
  Q 654.63 958.31 656.75 962.21
  L 650.00 958.79
  Z"
/>
<ellipse fill="#eef5fe" cx="0.00" cy="0.00" transform="translate(740.25,978.21) rotate(87.8)" rx="11.19" ry="10.37"/>
<path fill="#2b5287" d="
  M 645.20 1118.35
  C 618.81 1114.51 601.34 1092.75 603.02 1066.13
  C 606.46 1011.77 688.19 1005.10 704.61 1053.58
  C 708.68 1065.61 708.29 1078.54 703.04 1090.22
  C 692.94 1112.68 669.14 1121.82 645.20 1118.35
  Z
  M 655.4479 1095.6086
  A 25.58 23.69 89.4 0 0 678.8687 1069.7819
  A 25.58 23.69 89.4 0 0 654.9121 1044.4514
  A 25.58 23.69 89.4 0 0 631.4913 1070.2781
  A 25.58 23.69 89.4 0 0 655.4479 1095.6086
  Z"
/>
<path fill="#2b5287" d="
  M 578.28 1067.59
  C 579.78 1068.45 582.22 1068.76 583.81 1069.75
  Q 597.13 1078.05 595.68 1093.83
  C 593.93 1112.86 572.58 1118.04 556.80 1118.14
  Q 533.04 1118.29 509.24 1118.30
  A 0.51 0.50 89.4 0 1 508.73 1117.79
  L 508.76 1022.28
  A 0.48 0.48 0.0 0 1 509.23 1021.80
  Q 546.63 1021.46 561.49 1021.96
  C 573.61 1022.37 591.35 1028.93 592.40 1043.23
  Q 593.59 1059.55 578.38 1065.95
  Q 576.67 1066.67 578.28 1067.59
  Z
  M 555.60 1059.52
  C 567.19 1058.87 566.79 1043.13 555.48 1043.03
  Q 546.50 1042.95 537.35 1043.04
  A 0.53 0.53 0.0 0 0 536.82 1043.57
  L 536.72 1058.96
  A 0.67 0.67 0.0 0 0 537.36 1059.63
  Q 546.49 1060.02 555.60 1059.52
  Z
  M 537.36 1096.80
  C 543.55 1097.10 558.40 1098.48 563.14 1094.66
  C 568.94 1089.97 567.21 1082.16 560.41 1079.77
  C 554.28 1077.62 544.10 1078.70 537.47 1078.85
  A 0.57 0.57 0.0 0 0 536.91 1079.42
  L 536.78 1096.18
  A 0.61 0.61 0.0 0 0 537.36 1096.80
  Z"
/>
<path fill="#2b5287" d="
  M 762.41 1046.40
  L 777.82 1022.26
  A 0.95 0.92 -73.0 0 1 778.60 1021.83
  L 811.08 1021.71
  Q 811.61 1021.71 811.31 1022.15
  L 780.34 1067.17
  A 0.93 0.93 0.0 0 0 780.34 1068.21
  L 814.04 1117.56
  Q 814.48 1118.20 813.70 1118.20
  L 781.56 1118.27
  A 1.45 1.44 -25.1 0 1 780.64 1117.94
  Q 780.00 1117.42 779.34 1116.42
  Q 770.91 1103.75 762.42 1091.24
  A 0.62 0.62 0.0 0 0 761.39 1091.25
  L 744.01 1117.82
  A 0.85 0.84 16.5 0 1 743.30 1118.20
  L 711.00 1118.04
  Q 710.73 1118.03 710.88 1117.81
  L 744.28 1069.53
  A 0.86 0.85 -44.7 0 0 744.29 1068.57
  L 713.51 1022.68
  Q 712.90 1021.76 714.00 1021.76
  L 745.03 1021.77
  A 1.57 1.56 -16.2 0 1 746.35 1022.49
  L 761.62 1046.40
  A 0.47 0.47 0.0 0 0 762.41 1046.40
  Z"
/>
<path fill="#eef5fe" d="
  M 555.48 1043.03
  C 566.79 1043.13 567.19 1058.87 555.60 1059.52
  Q 546.49 1060.02 537.36 1059.63
  A 0.67 0.67 0.0 0 1 536.72 1058.96
  L 536.82 1043.57
  A 0.53 0.53 0.0 0 1 537.35 1043.04
  Q 546.50 1042.95 555.48 1043.03
  Z"
/>
<ellipse fill="#eef5fe" cx="0.00" cy="0.00" transform="translate(655.18,1070.03) rotate(89.4)" rx="25.58" ry="23.69"/>
<path fill="#eef5fe" d="
  M 537.36 1096.80
  A 0.61 0.61 0.0 0 1 536.78 1096.18
  L 536.91 1079.42
  A 0.57 0.57 0.0 0 1 537.47 1078.85
  C 544.10 1078.70 554.28 1077.62 560.41 1079.77
  C 567.21 1082.16 568.94 1089.97 563.14 1094.66
  C 558.40 1098.48 543.55 1097.10 537.36 1096.80
  Z"
/>
<path fill="#2bd5a5" d="
  M 303.21 1118.75
  C 303.11 1120.25 303.49 1121.89 303.49 1123.18
  Q 303.51 1186.21 303.50 1248.96
  A 0.80 0.79 86.2 0 0 304.40 1249.75
  C 308.06 1249.25 312.40 1249.71 315.05 1249.72
  Q 336.15 1249.81 357.25 1249.71
  L 958.25 1249.71
  L 1010.80 1249.41
  A 0.57 0.57 0.0 0 0 1011.37 1248.83
  C 1010.90 1203.55 1010.71 1158.25 1011.54 1113.00
  C 1016.31 1111.12 1018.79 1113.34 1021.25 1117.43
  C 1062.72 1186.36 1105.56 1258.43 1145.76 1323.97
  Q 1146.48 1325.15 1147.90 1325.99
  Q 1148.30 1326.22 1147.84 1326.28
  Q 1147.58 1326.32 1147.37 1326.17
  A 0.95 0.92 -26.5 0 0 1146.83 1326.00
  Q 658.70 1326.00 170.56 1325.77
  Q 169.67 1325.77 169.51 1325.63
  A 1.41 1.40 -49.7 0 1 169.36 1323.72
  Q 173.59 1318.30 176.59 1312.54
  C 180.86 1304.34 186.89 1297.71 191.48 1289.70
  Q 196.89 1280.29 200.32 1275.07
  C 228.80 1231.68 250.29 1195.49 276.16 1156.27
  C 284.05 1144.31 292.47 1129.69 298.98 1120.01
  Q 300.32 1118.01 303.21 1118.75
  Z"
/>
</svg>
