<?xml version="1.0" encoding="UTF-8" standalone="no"?>
<!DOCTYPE svg PUBLIC "-//W3C//DTD SVG 1.1//EN" "http://www.w3.org/Graphics/SVG/1.1/DTD/svg11.dtd">
<svg xmlns="http://www.w3.org/2000/svg" version="1.1" viewBox="0 0 169 171">
<circle fill="#004f77" cx="84.95" cy="27.51" r="17.08"/>
<path fill="#004f77" d="
  M 34.50 66.05
  A 0.64 0.64 0.0 0 0 34.32 64.87
  C 27.85 63.38 18.68 63.35 15.21 57.15
  A 1.24 1.24 0.0 0 1 15.09 56.22
  C 17.78 46.32 34.09 48.29 41.35 50.34
  C 44.63 51.26 45.68 53.06 45.77 56.28
  A 0.58 0.57 -5.6 0 1 45.28 56.87
  Q 39.08 57.85 33.70 55.11
  C 31.28 53.88 29.31 53.30 27.19 54.88
  A 0.53 0.53 0.0 0 0 27.36 55.81
  Q 30.16 56.58 32.94 57.29
  C 35.25 57.88 41.68 58.66 44.16 60.58
  C 49.38 64.62 46.28 70.50 40.49 71.38
  C 34.42 72.29 15.03 74.89 15.06 64.64
  A 0.60 0.59 86.6 0 1 15.57 64.06
  C 19.37 63.51 23.12 63.50 26.33 65.80
  Q 30.20 68.58 34.50 66.05
  Z"
/>
<path fill="#004f77" d="
  M 117.30 68.80
  A 0.22 0.22 0.0 0 0 117.71 68.92
  Q 123.74 60.25 129.58 51.61
  C 132.65 47.07 142.10 47.80 145.11 52.21
  Q 151.17 61.08 157.05 70.18
  A 1.09 1.08 71.2 0 1 156.23 71.85
  Q 152.62 72.16 148.50 71.97
  C 144.42 71.78 144.21 68.05 141.70 68.02
  Q 135.78 67.95 129.90 68.04
  A 0.76 0.76 0.0 0 0 129.21 68.51
  C 128.27 70.79 127.04 71.99 124.37 71.99
  C 120.17 72.00 104.10 73.11 101.58 70.48
  Q 96.33 64.99 91.99 59.57
  A 0.73 0.73 0.0 0 0 90.69 60.04
  L 90.99 69.90
  Q 91.05 71.85 89.09 71.89
  L 81.68 72.04
  A 0.57 0.56 88.5 0 1 81.10 71.48
  L 81.07 49.51
  A 0.61 0.60 -3.6 0 1 81.61 48.90
  C 85.61 48.49 93.51 48.06 96.35 51.65
  Q 100.58 57.02 105.37 62.02
  A 0.37 0.36 -67.1 0 0 106.00 61.76
  Q 105.95 56.61 106.18 51.30
  C 106.33 47.58 113.05 49.09 115.46 49.32
  A 1.73 1.73 0.0 0 1 117.03 51.01
  L 117.30 68.80
  Z
  M 135.95 57.46
  L 133.24 61.34
  Q 132.78 62.00 133.58 62.00
  L 139.50 62.00
  A 0.44 0.44 0.0 0 0 139.88 61.34
  L 137.71 57.54
  A 1.05 1.04 -42.3 0 0 135.95 57.46
  Z"
/>
<path fill="#004f77" d="
  M 60.66 56.91
  L 75.18 57.48
  A 0.71 0.71 0.0 0 1 75.86 58.18
  L 75.93 62.38
  A 0.63 0.63 0.0 0 1 75.32 63.02
  L 61.31 63.32
  A 1.31 1.30 -88.8 0 0 60.03 64.55
  Q 59.92 66.43 61.32 66.50
  Q 68.76 66.89 76.21 67.04
  A 0.72 0.71 90.0 0 1 76.91 67.75
  L 76.96 71.29
  A 0.70 0.70 0.0 0 1 76.26 72.00
  L 50.62 72.00
  A 0.62 0.62 0.0 0 1 50.00 71.38
  L 50.00 49.72
  A 0.77 0.77 0.0 0 1 50.78 48.95
  L 75.94 49.12
  A 0.84 0.83 88.5 0 1 76.77 49.92
  L 76.97 54.20
  A 0.64 0.64 0.0 0 1 76.35 54.87
  C 74.76 54.94 59.44 54.39 60.05 56.44
  A 0.67 0.67 0.0 0 0 60.66 56.91
  Z"
/>
<path fill="#004f77" d="
  M 49.69 89.06
  Q 29.19 89.36 8.63 88.86
  A 0.65 0.65 0.0 0 1 8.00 88.21
  L 8.00 77.61
  A 0.57 0.57 0.0 0 1 8.57 77.04
  L 78.43 77.02
  A 0.44 0.43 14.8 0 1 78.81 77.67
  L 38.13 148.43
  A 1.07 1.06 -55.2 0 1 36.53 148.72
  L 29.53 142.91
  A 2.63 2.63 0.0 0 1 28.77 139.89
  Q 30.10 136.61 31.82 133.57
  Q 42.87 114.05 54.23 94.71
  Q 55.21 93.04 54.94 91.18
  A 1.04 1.01 11.0 0 0 54.42 90.43
  Q 51.83 89.03 49.69 89.06
  Z"
/>
<path fill="#004f77" d="
  M 123.94 88.98
  C 118.75 88.98 111.85 88.91 116.35 96.65
  Q 128.81 118.08 141.35 139.58
  A 1.10 1.09 48.5 0 1 141.28 140.77
  Q 137.73 145.59 132.85 149.02
  A 0.47 0.47 0.0 0 1 132.18 148.88
  L 90.04 77.46
  A 0.31 0.30 75.0 0 1 90.30 77.00
  L 161.31 77.00
  A 0.67 0.67 0.0 0 1 161.98 77.67
  L 162.00 88.33
  A 0.68 0.67 -0.0 0 1 161.32 89.00
  Q 142.69 88.96 123.94 88.98
  Z"
/>
<path fill="#004f77" d="
  M 45.11 155.72
  A 0.23 0.23 0.0 0 1 45.01 155.39
  L 83.83 89.43
  A 0.87 0.87 0.0 0 1 85.32 89.42
  Q 103.88 119.70 122.36 150.41
  Q 123.53 152.36 124.39 154.46
  A 0.70 0.69 65.3 0 1 124.07 155.33
  L 113.86 160.65
  A 0.57 0.56 60.3 0 1 113.11 160.44
  Q 101.48 140.92 89.88 121.40
  C 88.43 118.95 84.89 113.16 82.49 117.02
  Q 76.71 126.31 56.87 160.42
  A 0.58 0.58 0.0 0 1 56.13 160.65
  L 45.11 155.72
  Z"
/>
</svg>
