<?xml version="1.0" encoding="UTF-8" standalone="no"?>
<!DOCTYPE svg PUBLIC "-//W3C//DTD SVG 1.1//EN" "http://www.w3.org/Graphics/SVG/1.1/DTD/svg11.dtd">
<svg xmlns="http://www.w3.org/2000/svg" version="1.1" viewBox="0 0 447 501">
<g stroke-width="2.00" fill="none" stroke-linecap="butt">
<path stroke="#ff7f6c" vector-effect="non-scaling-stroke" d="
  M 28.55 0.28
  L 78.03 45.94
  A 0.44 0.43 -39.3 0 1 77.96 46.63
  L 76.91 47.28
  A 0.47 0.46 -38.3 0 0 76.82 48.00
  Q 104.81 76.35 134.51 102.88
  C 146.41 113.50 157.67 124.56 169.31 135.33
  A 0.54 0.54 0.0 0 0 170.09 135.27
  L 174.21 130.20
  A 1.35 1.33 62.6 0 0 174.50 129.26
  L 174.46 128.75"
/>
<path stroke="#f7b2aa" vector-effect="non-scaling-stroke" d="
  M 174.46 128.75
  L 174.54 128.50"
/>
<path stroke="#ffb7ab" vector-effect="non-scaling-stroke" d="
  M 174.54 128.50
  Q 175.97 129.40 174.88 130.63
  Q 169.82 136.34 164.71 142.00"
/>
<path stroke="#f7b2aa" vector-effect="non-scaling-stroke" d="
  M 164.71 142.00
  L 147.56 160.03"
/>
<path stroke="#f86753" vector-effect="non-scaling-stroke" d="
  M 147.56 160.03
  C 133.53 145.87 118.84 132.41 104.77 118.35
  Q 69.13 82.75 31.85 48.87
  A 1.77 1.68 14.9 0 1 31.35 48.06
  C 30.82 46.14 30.47 45.00 28.88 43.60
  C 22.21 37.72 15.58 31.88 9.19 25.69
  Q 5.07 21.70 0.07 18.82"
/>
<path stroke="#ffc7c0" vector-effect="non-scaling-stroke" d="
  M 57.56 0.00
  C 71.35 18.30 88.87 33.93 103.84 51.28
  Q 120.43 70.52 137.04 89.75"
/>
<path stroke="#f7c1bf" vector-effect="non-scaling-stroke" d="
  M 137.04 89.75
  C 136.92 90.23 136.93 90.52 137.29 90.89
  Q 162.38 116.85 172.02 126.98
  Q 173.23 128.26 174.46 128.75"
/>
<path stroke="#f8afa7" vector-effect="non-scaling-stroke" d="
  M 0.00 42.19
  C 0.38 42.64 0.45 43.01 0.88 43.42
  Q 68.55 107.08 136.36 170.72
  A 0.96 0.96 0.0 0 0 137.68 170.71
  L 141.04 167.50"
/>
<path stroke="#f7fafe" vector-effect="non-scaling-stroke" d="
  M 141.04 167.50
  Q 141.22 167.36 141.44 167.29
  A 0.87 0.86 56.9 0 1 142.28 167.47
  L 157.61 181.05
  A 1.59 1.59 0.0 0 0 158.54 181.44
  L 162.25 181.71"
/>
<path stroke="#ffe0bb" vector-effect="non-scaling-stroke" d="
  M 162.25 181.71
  C 166.33 188.10 170.15 195.52 175.75 200.66
  Q 184.62 208.80 194.25 216.04"
/>
<path stroke="#f7fafe" vector-effect="non-scaling-stroke" d="
  M 194.25 216.04
  Q 197.74 219.94 197.31 225.20
  Q 197.26 225.70 197.44 226.16
  Q 197.80 227.07 197.46 228.00"
/>
<path stroke="#acc8f1" vector-effect="non-scaling-stroke" d="
  M 197.46 228.00
  L 119.47 228.08
  A 1.19 1.18 -67.8 0 0 118.62 228.44
  Q 105.62 241.73 92.79 254.75
  Q 92.51 255.05 92.04 256.50"
/>
<path stroke="#9cafd1" vector-effect="non-scaling-stroke" d="
  M 92.04 256.50
  L 91.99 274.64
  A 0.61 0.61 0.0 0 0 92.60 275.25
  L 104.11 275.25
  A 0.84 0.83 75.3 0 1 104.84 275.68
  Q 105.25 276.43 104.95 276.88"
/>
<path stroke="#95a9c3" vector-effect="non-scaling-stroke" d="
  M 104.95 276.88
  L 105.21 286.50"
/>
<path stroke="#9cafd1" vector-effect="non-scaling-stroke" d="
  M 105.21 286.50
  C 104.95 320.25 105.40 354.03 104.54 387.75"
/>
<path stroke="#95ead2" vector-effect="non-scaling-stroke" d="
  M 104.54 387.75
  Q 98.12 395.08 96.76 397.28
  Q 75.49 431.71 62.94 450.69
  Q 61.06 453.53 60.46 455.90
  A 0.51 0.51 0.0 0 0 60.84 456.52
  Q 63.66 457.15 67.50 457.16
  Q 236.83 457.70 362.11 457.37
  C 369.32 457.35 378.52 457.78 386.88 456.82
  C 394.92 455.90 389.13 447.78 387.09 444.37
  Q 371.10 417.59 355.34 390.67
  C 354.03 388.43 350.49 387.44 349.46 384.50"
/>
<path stroke="#a8c1e8" vector-effect="non-scaling-stroke" d="
  M 349.46 384.50
  Q 349.26 383.59 349.25 382.69
  Q 348.72 336.34 348.71 290.00"
/>
<path stroke="#a3b8e0" vector-effect="non-scaling-stroke" d="
  M 348.71 290.00
  L 349.22 275.37"
/>
<path stroke="#a8c1e8" vector-effect="non-scaling-stroke" d="
  M 349.22 275.37
  L 360.29 275.51
  A 1.66 1.66 0.0 0 0 361.97 273.86
  C 362.00 270.68 362.75 257.04 361.21 255.25"
/>
<path stroke="#acc8f1" vector-effect="non-scaling-stroke" d="
  M 361.21 255.25
  L 335.42 228.56
  A 1.87 1.86 67.9 0 0 334.08 227.99
  L 258.00 227.96"
/>
<path stroke="#ffe0bb" vector-effect="non-scaling-stroke" d="
  M 258.00 227.96
  L 258.91 223.74"
/>
<path stroke="#f7fafe" vector-effect="non-scaling-stroke" d="
  M 258.91 223.74
  C 260.64 218.81 263.89 209.22 262.73 204.79
  Q 261.78 201.20 257.05 195.19
  C 253.97 191.28 255.65 187.25 254.51 182.82
  A 0.68 0.67 -5.7 0 0 253.88 182.31
  L 248.48 182.13
  A 1.37 1.37 0.0 0 1 247.51 181.68
  Q 244.88 178.79 242.23 175.89
  C 235.29 168.32 232.73 163.41 221.59 161.25
  Q 203.84 157.80 185.92 154.97
  A 0.76 0.76 0.0 0 1 185.29 154.08
  Q 185.69 151.94 184.06 150.19
  C 182.88 148.93 172.91 138.36 172.08 138.68
  A 0.36 0.36 0.0 0 0 171.97 139.28
  Q 177.90 144.85 183.52 150.73
  Q 185.35 152.64 183.75 154.71"
/>
<path stroke="#ffe0bb" vector-effect="non-scaling-stroke" d="
  M 183.75 154.71
  L 181.54 157.25"
/>
<path stroke="#f7fafe" vector-effect="non-scaling-stroke" d="
  M 181.54 157.25
  L 164.71 142.00"
/>
<path stroke="#f7fafe" vector-effect="non-scaling-stroke" d="
  M 174.54 128.50
  L 137.04 89.75"
/>
<path stroke="#f7fafe" vector-effect="non-scaling-stroke" d="
  M 48.7245 95.5827
  A 0.26 0.26 0.0 0 0 48.7149 95.2151
  L 41.7368 88.5932
  A 0.26 0.26 0.0 0 0 41.3692 88.6028
  L 41.3555 88.6173
  A 0.26 0.26 0.0 0 0 41.3651 88.9849
  L 48.3432 95.6068
  A 0.26 0.26 0.0 0 0 48.7108 95.5972
  L 48.7245 95.5827"
/>
<path stroke="#efaaa6" vector-effect="non-scaling-stroke" d="
  M 147.56 160.03
  C 146.99 160.76 140.92 167.13 141.04 167.50"
/>
<path stroke="#f7dbba" vector-effect="non-scaling-stroke" d="
  M 258.91 223.74
  Q 259.24 217.00 261.65 210.68
  C 263.66 205.38 258.99 200.28 256.93 195.93
  A 0.74 0.73 -22.0 0 0 256.03 195.55
  L 255.66 195.67
  A 0.63 0.63 0.0 0 0 255.24 196.20
  L 255.21 196.50"
/>
<path stroke="#f7fafe" vector-effect="non-scaling-stroke" d="
  M 255.21 196.50
  L 253.84 183.63
  A 0.54 0.53 85.8 0 0 253.30 183.16
  Q 247.70 183.32 238.49 184.96
  Q 228.25 186.78 199.75 190.79"
/>
<path stroke="#f7dbba" vector-effect="non-scaling-stroke" d="
  M 199.75 190.79
  Q 198.12 189.09 197.58 186.65
  A 0.44 0.44 0.0 0 1 197.97 186.12
  Q 216.93 184.50 235.94 183.54
  C 238.94 183.38 241.91 182.63 245.07 182.38
  A 0.72 0.72 0.0 0 0 245.51 181.14
  C 238.84 174.90 235.40 167.49 226.45 163.57
  Q 223.42 162.24 214.73 160.94
  Q 208.05 159.94 202.89 158.90
  C 196.61 157.62 189.72 157.00 183.75 154.71"
/>
<path stroke="#f7dbba" vector-effect="non-scaling-stroke" d="
  M 181.54 157.25
  Q 173.35 166.58 165.37 176.10
  C 163.80 177.97 161.84 178.44 162.25 181.71"
/>
<path stroke="#ffe0bb" vector-effect="non-scaling-stroke" d="
  M 199.75 190.79
  Q 202.62 195.61 212.46 210.06
  C 216.72 216.32 219.61 226.39 208.00 226.79"
/>
<path stroke="#f7dbba" vector-effect="non-scaling-stroke" d="
  M 208.00 226.79
  C 203.84 224.29 199.30 221.83 196.72 217.58
  C 196.06 216.50 195.40 216.28 194.25 216.04"
/>
<path stroke="#ffe0bb" vector-effect="non-scaling-stroke" d="
  M 255.21 196.50
  Q 254.99 212.42 256.54 228.25"
/>
<path stroke="#acc8f1" vector-effect="non-scaling-stroke" d="
  M 256.54 228.25
  L 257.04 240.00"
/>
<path stroke="#95a9c3" vector-effect="non-scaling-stroke" d="
  M 257.04 240.00
  L 257.00 244.21"
/>
<path stroke="#acc8f1" vector-effect="non-scaling-stroke" d="
  M 257.00 244.21
  Q 227.77 244.91 198.54 244.25"
/>
<path stroke="#95a9c3" vector-effect="non-scaling-stroke" d="
  M 198.54 244.25
  L 198.21 239.25"
/>
<path stroke="#acc8f1" vector-effect="non-scaling-stroke" d="
  M 198.21 239.25
  L 197.75 228.29"
/>
<path stroke="#f7fafe" vector-effect="non-scaling-stroke" d="
  M 197.75 228.29
  C 201.30 227.08 204.13 228.81 208.00 226.79"
/>
<path stroke="#aca9ad" vector-effect="non-scaling-stroke" d="
  M 258.00 227.96
  L 256.54 228.25"
/>
<path stroke="#a4c2f0" vector-effect="non-scaling-stroke" d="
  M 197.75 228.29
  L 197.46 228.00"
/>
<path stroke="#4271b5" vector-effect="non-scaling-stroke" d="
  M 198.21 239.25
  Q 195.35 240.10 192.24 239.79
  A 0.94 0.91 22.0 0 0 191.43 240.12
  L 188.50 243.67
  Q 188.10 244.16 188.74 244.17
  L 198.54 244.25"
/>
<path stroke="#4271b5" vector-effect="non-scaling-stroke" d="
  M 257.00 244.21
  Q 260.98 244.90 264.95 244.27
  A 0.40 0.40 0.0 0 0 265.25 243.72
  Q 263.03 238.69 257.04 240.00"
/>
<path stroke="#5589da" vector-effect="non-scaling-stroke" d="
  M 361.21 255.25
  L 331.25 256.04"
/>
<path stroke="#5080d1" vector-effect="non-scaling-stroke" d="
  M 331.25 256.04
  Q 260.78 255.96 190.32 255.83
  C 167.93 255.79 145.61 256.17 123.18 255.72"
/>
<path stroke="#4978c2" vector-effect="non-scaling-stroke" d="
  M 123.18 255.72
  L 94.11 255.81
  A 1.61 1.57 27.3 0 0 93.22 256.08
  Q 92.68 256.43 92.04 256.50"
/>
<path stroke="#4c79c9" vector-effect="non-scaling-stroke" d="
  M 349.22 275.37
  C 343.41 275.47 337.63 275.33 331.74 275.48
  A 0.52 0.52 0.0 0 1 331.21 274.99
  Q 330.66 265.46 331.25 256.04"
/>
<path stroke="#4068b1" vector-effect="non-scaling-stroke" d="
  M 123.18 255.72
  Q 122.56 265.44 123.15 275.01
  A 0.54 0.53 88.3 0 0 123.68 275.52
  L 330.37 275.50
  A 0.56 0.55 -89.5 0 1 330.92 276.07
  L 330.74 289.24
  A 0.52 0.52 0.0 0 1 330.22 289.76
  Q 228.90 289.72 127.58 289.79
  C 126.38 289.79 124.88 290.07 123.50 290.06
  A 0.51 0.50 0.6 0 0 122.99 290.55
  C 122.50 303.55 122.96 320.21 122.97 329.47
  Q 123.04 380.02 122.98 430.58
  A 0.77 0.77 0.0 0 0 123.37 431.25
  L 123.75 431.46"
/>
<path stroke="#329aa3" vector-effect="non-scaling-stroke" d="
  M 123.75 431.46
  L 105.41 431.49
  A 0.66 0.66 0.0 0 1 104.75 430.79
  C 105.49 416.97 104.46 405.43 105.06 389.34
  Q 105.08 388.84 104.86 388.40
  L 104.54 387.75"
/>
<path stroke="#325995" vector-effect="non-scaling-stroke" d="
  M 105.21 286.50
  Q 104.38 289.79 107.02 289.92
  Q 113.90 290.24 122.34 289.80
  A 0.64 0.63 -1.9 0 0 122.95 289.16
  L 122.91 276.36
  A 0.69 0.69 0.0 0 0 122.31 275.68
  Q 113.47 274.49 104.95 276.88"
/>
<path stroke="#4c79c9" vector-effect="non-scaling-stroke" d="
  M 348.71 290.00
  L 331.80 290.09
  A 0.84 0.84 0.0 0 0 330.97 290.92
  Q 330.55 350.84 330.83 410.69
  Q 330.90 424.77 331.25 431.46"
/>
<path stroke="#39a3b2" vector-effect="non-scaling-stroke" d="
  M 331.25 431.46
  L 123.75 431.46"
/>
<path stroke="#3961a4" vector-effect="non-scaling-stroke" d="
  M 159.71 376.50
  L 159.47 397.07
  A 0.54 0.53 -4.5 0 0 160.10 397.60
  Q 170.96 395.69 181.99 398.01"
/>
<path stroke="#4068b1" vector-effect="non-scaling-stroke" d="
  M 181.99 398.01
  Q 238.51 400.07 295.09 398.81
  A 0.58 0.58 0.0 0 0 295.65 398.30
  Q 296.73 389.57 296.74 385.75
  Q 296.83 351.25 296.59 316.89
  A 0.85 0.84 0.7 0 0 295.76 316.05
  Q 253.93 315.49 212.18 316.13
  C 210.87 316.15 209.04 315.57 207.50 315.62
  Q 189.65 316.20 171.79 316.25
  C 167.77 316.26 163.22 317.43 158.65 317.15
  A 0.42 0.42 0.0 0 0 158.21 317.61
  C 158.68 321.88 158.00 326.86 158.00 330.30
  C 158.01 346.29 155.99 361.05 159.71 376.50"
/>
<path stroke="#325995" vector-effect="non-scaling-stroke" d="
  M 181.99 398.01
  Q 183.37 396.72 185.43 397.23
  A 1.00 0.99 29.6 0 0 186.38 396.97
  L 187.07 396.27
  Q 187.53 395.80 186.88 395.78
  L 184.00 395.71"
/>
<path stroke="#93aad0" vector-effect="non-scaling-stroke" d="
  M 184.00 395.71
  L 292.19 395.52
  A 0.51 0.50 -0.6 0 0 292.70 395.01
  L 292.50 320.82
  A 0.87 0.87 0.0 0 0 291.63 319.95
  L 161.78 320.32
  A 0.43 0.43 0.0 0 0 161.35 320.76
  L 161.46 366.50"
/>
<path stroke="#325995" vector-effect="non-scaling-stroke" d="
  M 161.46 366.50
  Q 160.17 366.55 160.25 368.00
  Q 160.44 371.49 159.71 376.50"
/>
<path stroke="#8da3c2" vector-effect="non-scaling-stroke" d="
  M 184.00 395.71
  L 161.55 395.67
  A 0.48 0.48 0.0 0 1 161.07 395.18
  L 161.46 366.50"
/>
<path stroke="#3eacbb" vector-effect="non-scaling-stroke" d="
  M 349.46 384.50
  C 348.45 385.84 349.30 387.18 349.29 388.27
  Q 349.09 409.49 348.91 430.86
  A 0.52 0.52 0.0 0 1 348.39 431.38
  L 331.25 431.46"
/>
<path stroke="#8da3c2" vector-effect="non-scaling-stroke" d="
  M 263.4097 337.6515
  A 7.85 7.21 -0.5 0 0 255.4971 330.5103
  A 7.85 7.21 -0.5 0 0 247.7103 337.7885
  A 7.85 7.21 -0.5 0 0 255.6229 344.9297
  A 7.85 7.21 -0.5 0 0 263.4097 337.6515"
/>
<path stroke="#8da3c2" vector-effect="non-scaling-stroke" d="
  M 180.19 339.25
  L 185.86 339.25
  A 0.56 0.55 -88.9 0 0 186.41 338.71
  L 186.47 337.00
  A 0.71 0.70 -85.0 0 0 185.87 336.28
  C 183.94 336.00 179.49 337.16 179.54 334.43
  A 0.72 0.72 0.0 0 1 180.25 333.72
  L 186.47 333.67
  A 0.64 0.63 -87.0 0 0 187.10 333.10
  L 187.28 331.43
  A 0.62 0.61 -87.0 0 0 186.67 330.75
  L 176.00 330.75
  A 0.51 0.50 -0.0 0 0 175.49 331.25
  L 175.51 344.10
  A 0.66 0.65 89.6 0 0 176.16 344.75
  L 186.62 344.75
  A 0.63 0.62 0.0 0 0 187.25 344.13
  L 187.26 342.32
  A 0.63 0.63 0.0 0 0 186.64 341.69
  L 180.43 341.51
  A 0.70 0.69 88.6 0 1 179.76 340.87
  L 179.67 339.81
  A 0.52 0.51 -2.5 0 1 180.19 339.25"
/>
<path stroke="#8da3c2" vector-effect="non-scaling-stroke" d="
  M 194.22 341.68
  A 0.64 0.64 0.0 0 1 193.54 341.04
  L 193.58 331.39
  A 0.64 0.64 0.0 0 0 192.94 330.75
  L 190.16 330.75
  A 0.64 0.64 0.0 0 0 189.52 331.39
  L 189.51 344.11
  A 0.64 0.64 0.0 0 0 190.15 344.75
  L 198.95 344.73
  A 0.64 0.64 0.0 0 0 199.59 344.12
  L 199.69 342.06
  A 0.64 0.64 0.0 0 0 199.02 341.39
  L 194.22 341.68"
/>
<path stroke="#8da3c2" vector-effect="non-scaling-stroke" d="
  M 205.24 334.65
  A 0.76 0.75 -4.5 0 1 205.99 333.78
  L 211.94 333.77
  A 0.72 0.72 0.0 0 0 212.65 333.14
  L 212.87 331.45
  A 0.62 0.62 0.0 0 0 212.25 330.75
  L 201.75 330.75
  A 0.50 0.50 0.0 0 0 201.25 331.25
  L 201.25 344.25
  A 0.50 0.50 0.0 0 0 201.75 344.75
  L 212.23 344.75
  A 0.69 0.69 0.0 0 0 212.92 344.09
  L 212.99 342.24
  A 0.58 0.58 0.0 0 0 212.42 341.64
  L 206.17 341.49
  A 0.65 0.65 0.0 0 1 205.53 340.86
  L 205.49 339.89
  A 0.62 0.62 0.0 0 1 206.11 339.25
  L 211.40 339.25
  A 0.68 0.67 1.3 0 0 212.08 338.61
  L 212.18 336.92
  A 0.65 0.64 -88.7 0 0 211.53 336.23
  C 209.85 336.27 205.59 337.03 205.24 334.65"
/>
<path stroke="#8da3c2" vector-effect="non-scaling-stroke" d="
  M 220.31 344.68
  Q 223.93 345.44 227.18 342.81
  A 0.63 0.62 -30.9 0 0 227.37 342.07
  Q 226.78 340.71 225.45 340.24
  A 1.07 1.06 37.5 0 0 224.48 340.36
  C 216.32 345.89 217.34 328.43 225.05 335.31
  A 0.61 0.61 0.0 0 0 225.95 335.20
  L 227.24 333.35
  A 0.69 0.68 34.5 0 0 227.06 332.39
  C 215.87 324.82 208.57 342.18 220.31 344.68"
/>
<path stroke="#8da3c2" vector-effect="non-scaling-stroke" d="
  M 232.50 334.37
  L 232.50 344.15
  A 0.55 0.55 0.0 0 0 232.95 344.69
  Q 234.50 344.97 235.99 344.58
  A 0.70 0.69 82.3 0 0 236.50 343.91
  L 236.50 334.33
  A 0.62 0.62 0.0 0 1 237.17 333.71
  L 239.88 333.94
  A 0.57 0.56 2.8 0 0 240.50 333.38
  L 240.51 331.38
  A 0.63 0.63 0.0 0 0 239.88 330.75
  L 228.88 330.75
  A 0.63 0.63 0.0 0 0 228.25 331.38
  L 228.25 333.13
  A 0.63 0.62 0.0 0 0 228.88 333.75
  L 231.87 333.75
  A 0.63 0.62 -0.0 0 1 232.50 334.37"
/>
<path stroke="#8da3c2" vector-effect="non-scaling-stroke" d="
  M 246.2628 331.2275
  A 0.46 0.46 0.0 0 0 245.8044 330.7659
  L 242.4644 330.7542
  A 0.46 0.46 0.0 0 0 242.0028 331.2126
  L 241.9572 344.2725
  A 0.46 0.46 0.0 0 0 242.4156 344.7341
  L 245.7556 344.7458
  A 0.46 0.46 0.0 0 0 246.2172 344.2874
  L 246.2628 331.2275"
/>
<path stroke="#8da3c2" vector-effect="non-scaling-stroke" d="
  M 268.75 337.77
  A 0.33 0.33 0.0 0 1 269.34 337.57
  L 274.58 344.54
  A 0.33 0.33 0.0 0 0 274.84 344.67
  L 278.16 344.75
  A 0.33 0.33 0.0 0 0 278.50 344.42
  L 278.50 331.08
  A 0.33 0.33 0.0 0 0 278.17 330.75
  L 274.90 330.75
  A 0.33 0.33 0.0 0 0 274.57 331.08
  L 274.67 337.70
  A 0.33 0.33 0.0 0 1 274.07 337.91
  L 268.83 330.89
  A 0.33 0.33 0.0 0 0 268.57 330.76
  L 265.33 330.75
  A 0.33 0.33 0.0 0 0 265.00 331.08
  L 265.00 344.42
  A 0.33 0.33 0.0 0 0 265.33 344.75
  L 268.42 344.75
  A 0.33 0.33 0.0 0 0 268.75 344.42
  L 268.75 337.77"
/>
<path stroke="#8da3c2" vector-effect="non-scaling-stroke" d="
  M 244.4097 369.5655
  A 18.24 17.12 0.3 0 0 226.2596 352.3502
  A 18.24 17.12 0.3 0 0 207.9303 369.3745
  A 18.24 17.12 0.3 0 0 226.0804 386.5898
  A 18.24 17.12 0.3 0 0 244.4097 369.5655"
/>
<path stroke="#8da3c2" vector-effect="non-scaling-stroke" d="
  M 199.74 368.09
  C 204.73 365.95 206.48 360.59 202.91 356.38
  C 198.78 351.50 183.47 352.42 176.02 352.94
  A 0.55 0.55 0.0 0 0 175.50 353.49
  L 175.50 385.51
  A 0.61 0.60 -89.0 0 0 176.08 386.12
  C 184.42 386.48 198.26 387.50 203.20 382.94
  C 207.36 379.10 206.57 369.92 199.81 368.71
  A 0.33 0.33 0.0 0 1 199.74 368.09"
/>
<path stroke="#8da3c2" vector-effect="non-scaling-stroke" d="
  M 263.30 360.97
  A 0.34 0.34 0.0 0 1 262.73 360.97
  L 257.68 352.91
  A 0.34 0.34 0.0 0 0 257.39 352.75
  L 246.57 352.75
  A 0.34 0.34 0.0 0 0 246.29 353.28
  L 256.97 368.81
  A 0.34 0.34 0.0 0 1 256.97 369.19
  L 245.49 385.68
  A 0.34 0.34 0.0 0 0 245.77 386.22
  L 256.67 386.17
  A 0.34 0.34 0.0 0 0 256.95 386.02
  L 262.68 377.23
  A 0.34 0.34 0.0 0 1 263.25 377.23
  L 269.38 386.10
  A 0.34 0.34 0.0 0 0 269.66 386.25
  L 280.86 386.21
  A 0.34 0.34 0.0 0 0 281.14 385.68
  L 269.52 368.71
  A 0.34 0.34 0.0 0 1 269.52 368.33
  L 280.03 353.31
  A 0.34 0.34 0.0 0 0 279.75 352.77
  L 268.77 352.78
  A 0.34 0.34 0.0 0 0 268.48 352.94
  L 263.30 360.97"
/>
<path stroke="#8da3c2" vector-effect="non-scaling-stroke" d="
  M 255.9579 341.3871
  A 3.68 3.39 85.2 0 0 259.0281 337.4363
  A 3.68 3.39 85.2 0 0 255.3421 334.0529
  A 3.68 3.39 85.2 0 0 252.2719 338.0037
  A 3.68 3.39 85.2 0 0 255.9579 341.3871"
/>
<path stroke="#8da3c2" vector-effect="non-scaling-stroke" d="
  M 226.0885 378.1592
  A 8.70 7.98 90.8 0 0 234.1892 369.5714
  A 8.70 7.98 90.8 0 0 226.3315 360.7608
  A 8.70 7.98 90.8 0 0 218.2308 369.3486
  A 8.70 7.98 90.8 0 0 226.0885 378.1592"
/>
<path stroke="#8da3c2" vector-effect="non-scaling-stroke" d="
  M 192.97 360.62
  Q 189.68 359.92 185.97 360.30
  A 0.53 0.52 -3.1 0 0 185.50 360.82
  L 185.50 365.20
  A 0.52 0.52 0.0 0 0 185.99 365.72
  C 188.85 365.92 194.97 366.73 194.45 362.24
  A 1.88 1.88 0.0 0 0 192.97 360.62"
/>
<path stroke="#8da3c2" vector-effect="non-scaling-stroke" d="
  M 193.81 373.19
  Q 190.92 371.90 186.07 372.56
  A 0.63 0.62 86.8 0 0 185.53 373.17
  L 185.42 378.12
  A 0.53 0.53 0.0 0 0 185.90 378.66
  Q 191.25 379.15 193.32 378.34
  C 195.71 377.41 196.49 374.38 193.81 373.19"
/>
</g>
<path fill="#ff6f57" d="
  M 0.00 0.00
  L 28.55 0.28
  L 78.03 45.94
  A 0.44 0.43 -39.3 0 1 77.96 46.63
  L 76.91 47.28
  A 0.47 0.46 -38.3 0 0 76.82 48.00
  Q 104.81 76.35 134.51 102.88
  C 146.41 113.50 157.67 124.56 169.31 135.33
  A 0.54 0.54 0.0 0 0 170.09 135.27
  L 174.21 130.20
  A 1.35 1.33 62.6 0 0 174.50 129.26
  L 174.46 128.75
  L 174.54 128.50
  Q 175.97 129.40 174.88 130.63
  Q 169.82 136.34 164.71 142.00
  L 147.56 160.03
  C 133.53 145.87 118.84 132.41 104.77 118.35
  Q 69.13 82.75 31.85 48.87
  A 1.77 1.68 14.9 0 1 31.35 48.06
  C 30.82 46.14 30.47 45.00 28.88 43.60
  C 22.21 37.72 15.58 31.88 9.19 25.69
  Q 5.07 21.70 0.07 18.82
  L 0.00 0.00
  Z"
/>
<path fill="#ff8e80" d="
  M 28.55 0.28
  L 57.56 0.00
  C 71.35 18.30 88.87 33.93 103.84 51.28
  Q 120.43 70.52 137.04 89.75
  C 136.92 90.23 136.93 90.52 137.29 90.89
  Q 162.38 116.85 172.02 126.98
  Q 173.23 128.26 174.46 128.75
  L 174.50 129.26
  A 1.35 1.33 62.6 0 1 174.21 130.20
  L 170.09 135.27
  A 0.54 0.54 0.0 0 1 169.31 135.33
  C 157.67 124.56 146.41 113.50 134.51 102.88
  Q 104.81 76.35 76.82 48.00
  A 0.47 0.46 -38.3 0 1 76.91 47.28
  L 77.96 46.63
  A 0.44 0.43 -39.3 0 0 78.03 45.94
  L 28.55 0.28
  Z"
/>
<path fill="#ffffff" d="
  M 57.56 0.00
  L 447.00 0.00
  L 447.00 501.00
  L 0.00 501.00
  L 0.00 42.19
  C 0.38 42.64 0.45 43.01 0.88 43.42
  Q 68.55 107.08 136.36 170.72
  A 0.96 0.96 0.0 0 0 137.68 170.71
  L 141.04 167.50
  Q 141.22 167.36 141.44 167.29
  A 0.87 0.86 56.9 0 1 142.28 167.47
  L 157.61 181.05
  A 1.59 1.59 0.0 0 0 158.54 181.44
  L 162.25 181.71
  C 166.33 188.10 170.15 195.52 175.75 200.66
  Q 184.62 208.80 194.25 216.04
  Q 197.74 219.94 197.31 225.20
  Q 197.26 225.70 197.44 226.16
  Q 197.80 227.07 197.46 228.00
  L 119.47 228.08
  A 1.19 1.18 -67.8 0 0 118.62 228.44
  Q 105.62 241.73 92.79 254.75
  Q 92.51 255.05 92.04 256.50
  L 91.99 274.64
  A 0.61 0.61 0.0 0 0 92.60 275.25
  L 104.11 275.25
  A 0.84 0.83 75.3 0 1 104.84 275.68
  Q 105.25 276.43 104.95 276.88
  L 105.21 286.50
  C 104.95 320.25 105.40 354.03 104.54 387.75
  Q 98.12 395.08 96.76 397.28
  Q 75.49 431.71 62.94 450.69
  Q 61.06 453.53 60.46 455.90
  A 0.51 0.51 0.0 0 0 60.84 456.52
  Q 63.66 457.15 67.50 457.16
  Q 236.83 457.70 362.11 457.37
  C 369.32 457.35 378.52 457.78 386.88 456.82
  C 394.92 455.90 389.13 447.78 387.09 444.37
  Q 371.10 417.59 355.34 390.67
  C 354.03 388.43 350.49 387.44 349.46 384.50
  Q 349.26 383.59 349.25 382.69
  Q 348.72 336.34 348.71 290.00
  L 349.22 275.37
  L 360.29 275.51
  A 1.66 1.66 0.0 0 0 361.97 273.86
  C 362.00 270.68 362.75 257.04 361.21 255.25
  L 335.42 228.56
  A 1.87 1.86 67.9 0 0 334.08 227.99
  L 258.00 227.96
  L 258.91 223.74
  C 260.64 218.81 263.89 209.22 262.73 204.79
  Q 261.78 201.20 257.05 195.19
  C 253.97 191.28 255.65 187.25 254.51 182.82
  A 0.68 0.67 -5.7 0 0 253.88 182.31
  L 248.48 182.13
  A 1.37 1.37 0.0 0 1 247.51 181.68
  Q 244.88 178.79 242.23 175.89
  C 235.29 168.32 232.73 163.41 221.59 161.25
  Q 203.84 157.80 185.92 154.97
  A 0.76 0.76 0.0 0 1 185.29 154.08
  Q 185.69 151.94 184.06 150.19
  C 182.88 148.93 172.91 138.36 172.08 138.68
  A 0.36 0.36 0.0 0 0 171.97 139.28
  Q 177.90 144.85 183.52 150.73
  Q 185.35 152.64 183.75 154.71
  L 181.54 157.25
  L 164.71 142.00
  Q 169.82 136.34 174.88 130.63
  Q 175.97 129.40 174.54 128.50
  L 137.04 89.75
  Q 120.43 70.52 103.84 51.28
  C 88.87 33.93 71.35 18.30 57.56 0.00
  Z
  M 48.7245 95.5827
  A 0.26 0.26 0.0 0 0 48.7149 95.2151
  L 41.7368 88.5932
  A 0.26 0.26 0.0 0 0 41.3692 88.6028
  L 41.3555 88.6173
  A 0.26 0.26 0.0 0 0 41.3651 88.9849
  L 48.3432 95.6068
  A 0.26 0.26 0.0 0 0 48.7108 95.5972
  L 48.7245 95.5827
  Z"
/>
<path fill="#f05f4e" d="
  M 147.56 160.03
  C 146.99 160.76 140.92 167.13 141.04 167.50
  L 137.68 170.71
  A 0.96 0.96 0.0 0 1 136.36 170.72
  Q 68.55 107.08 0.88 43.42
  C 0.45 43.01 0.38 42.64 0.00 42.19
  L 0.07 18.82
  Q 5.07 21.70 9.19 25.69
  C 15.58 31.88 22.21 37.72 28.88 43.60
  C 30.47 45.00 30.82 46.14 31.35 48.06
  A 1.77 1.68 14.9 0 0 31.85 48.87
  Q 69.13 82.75 104.77 118.35
  C 118.84 132.41 133.53 145.87 147.56 160.03
  Z"
/>
<rect fill="#eef4fd" x="-5.07" y="-0.27" transform="translate(45.04,92.10) rotate(43.5)" width="10.14" height="0.54" rx="0.26"/>
<path fill="#eef4fd" d="
  M 137.04 89.75
  L 174.54 128.50
  L 174.46 128.75
  Q 173.23 128.26 172.02 126.98
  Q 162.38 116.85 137.29 90.89
  C 136.93 90.52 136.92 90.23 137.04 89.75
  Z"
/>
<path fill="#eef4fd" d="
  M 258.91 223.74
  Q 259.24 217.00 261.65 210.68
  C 263.66 205.38 258.99 200.28 256.93 195.93
  A 0.74 0.73 -22.0 0 0 256.03 195.55
  L 255.66 195.67
  A 0.63 0.63 0.0 0 0 255.24 196.20
  L 255.21 196.50
  L 253.84 183.63
  A 0.54 0.53 85.8 0 0 253.30 183.16
  Q 247.70 183.32 238.49 184.96
  Q 228.25 186.78 199.75 190.79
  Q 198.12 189.09 197.58 186.65
  A 0.44 0.44 0.0 0 1 197.97 186.12
  Q 216.93 184.50 235.94 183.54
  C 238.94 183.38 241.91 182.63 245.07 182.38
  A 0.72 0.72 0.0 0 0 245.51 181.14
  C 238.84 174.90 235.40 167.49 226.45 163.57
  Q 223.42 162.24 214.73 160.94
  Q 208.05 159.94 202.89 158.90
  C 196.61 157.62 189.72 157.00 183.75 154.71
  Q 185.35 152.64 183.52 150.73
  Q 177.90 144.85 171.97 139.28
  A 0.36 0.36 0.0 0 1 172.08 138.68
  C 172.91 138.36 182.88 148.93 184.06 150.19
  Q 185.69 151.94 185.29 154.08
  A 0.76 0.76 0.0 0 0 185.92 154.97
  Q 203.84 157.80 221.59 161.25
  C 232.73 163.41 235.29 168.32 242.23 175.89
  Q 244.88 178.79 247.51 181.68
  A 1.37 1.37 0.0 0 0 248.48 182.13
  L 253.88 182.31
  A 0.68 0.67 -5.7 0 1 254.51 182.82
  C 255.65 187.25 253.97 191.28 257.05 195.19
  Q 261.78 201.20 262.73 204.79
  C 263.89 209.22 260.64 218.81 258.91 223.74
  Z"
/>
<path fill="#eef4fd" d="
  M 164.71 142.00
  L 181.54 157.25
  Q 173.35 166.58 165.37 176.10
  C 163.80 177.97 161.84 178.44 162.25 181.71
  L 158.54 181.44
  A 1.59 1.59 0.0 0 1 157.61 181.05
  L 142.28 167.47
  A 0.87 0.86 56.9 0 0 141.44 167.29
  Q 141.22 167.36 141.04 167.50
  C 140.92 167.13 146.99 160.76 147.56 160.03
  L 164.71 142.00
  Z"
/>
<path fill="#ffc177" d="
  M 183.75 154.71
  C 189.72 157.00 196.61 157.62 202.89 158.90
  Q 208.05 159.94 214.73 160.94
  Q 223.42 162.24 226.45 163.57
  C 235.40 167.49 238.84 174.90 245.51 181.14
  A 0.72 0.72 0.0 0 1 245.07 182.38
  C 241.91 182.63 238.94 183.38 235.94 183.54
  Q 216.93 184.50 197.97 186.12
  A 0.44 0.44 0.0 0 0 197.58 186.65
  Q 198.12 189.09 199.75 190.79
  Q 202.62 195.61 212.46 210.06
  C 216.72 216.32 219.61 226.39 208.00 226.79
  C 203.84 224.29 199.30 221.83 196.72 217.58
  C 196.06 216.50 195.40 216.28 194.25 216.04
  Q 184.62 208.80 175.75 200.66
  C 170.15 195.52 166.33 188.10 162.25 181.71
  C 161.84 178.44 163.80 177.97 165.37 176.10
  Q 173.35 166.58 181.54 157.25
  L 183.75 154.71
  Z"
/>
<path fill="#ffffff" d="
  M 255.21 196.50
  Q 254.99 212.42 256.54 228.25
  L 257.04 240.00
  L 257.00 244.21
  Q 227.77 244.91 198.54 244.25
  L 198.21 239.25
  L 197.75 228.29
  C 201.30 227.08 204.13 228.81 208.00 226.79
  C 219.61 226.39 216.72 216.32 212.46 210.06
  Q 202.62 195.61 199.75 190.79
  Q 228.25 186.78 238.49 184.96
  Q 247.70 183.32 253.30 183.16
  A 0.54 0.53 85.8 0 1 253.84 183.63
  L 255.21 196.50
  Z"
/>
<path fill="#ffc177" d="
  M 258.91 223.74
  L 258.00 227.96
  L 256.54 228.25
  Q 254.99 212.42 255.21 196.50
  L 255.24 196.20
  A 0.63 0.63 0.0 0 1 255.66 195.67
  L 256.03 195.55
  A 0.74 0.73 -22.0 0 1 256.93 195.93
  C 258.99 200.28 263.66 205.38 261.65 210.68
  Q 259.24 217.00 258.91 223.74
  Z"
/>
<path fill="#eef4fd" d="
  M 194.25 216.04
  C 195.40 216.28 196.06 216.50 196.72 217.58
  C 199.30 221.83 203.84 224.29 208.00 226.79
  C 204.13 228.81 201.30 227.08 197.75 228.29
  L 197.46 228.00
  Q 197.80 227.07 197.44 226.16
  Q 197.26 225.70 197.31 225.20
  Q 197.74 219.94 194.25 216.04
  Z"
/>
<path fill="#5990e2" d="
  M 197.46 228.00
  L 197.75 228.29
  L 198.21 239.25
  Q 195.35 240.10 192.24 239.79
  A 0.94 0.91 22.0 0 0 191.43 240.12
  L 188.50 243.67
  Q 188.10 244.16 188.74 244.17
  L 198.54 244.25
  Q 227.77 244.91 257.00 244.21
  Q 260.98 244.90 264.95 244.27
  A 0.40 0.40 0.0 0 0 265.25 243.72
  Q 263.03 238.69 257.04 240.00
  L 256.54 228.25
  L 258.00 227.96
  L 334.08 227.99
  A 1.87 1.86 67.9 0 1 335.42 228.56
  L 361.21 255.25
  L 331.25 256.04
  Q 260.78 255.96 190.32 255.83
  C 167.93 255.79 145.61 256.17 123.18 255.72
  L 94.11 255.81
  A 1.61 1.57 27.3 0 0 93.22 256.08
  Q 92.68 256.43 92.04 256.50
  Q 92.51 255.05 92.79 254.75
  Q 105.62 241.73 118.62 228.44
  A 1.19 1.18 -67.8 0 1 119.47 228.08
  L 197.46 228.00
  Z"
/>
<path fill="#2b5287" d="
  M 198.21 239.25
  L 198.54 244.25
  L 188.74 244.17
  Q 188.10 244.16 188.50 243.67
  L 191.43 240.12
  A 0.94 0.91 22.0 0 1 192.24 239.79
  Q 195.35 240.10 198.21 239.25
  Z"
/>
<path fill="#2b5287" d="
  M 257.04 240.00
  Q 263.03 238.69 265.25 243.72
  A 0.40 0.40 0.0 0 1 264.95 244.27
  Q 260.98 244.90 257.00 244.21
  L 257.04 240.00
  Z"
/>
<path fill="#5182d1" d="
  M 361.21 255.25
  C 362.75 257.04 362.00 270.68 361.97 273.86
  A 1.66 1.66 0.0 0 1 360.29 275.51
  L 349.22 275.37
  C 343.41 275.47 337.63 275.33 331.74 275.48
  A 0.52 0.52 0.0 0 1 331.21 274.99
  Q 330.66 265.46 331.25 256.04
  L 361.21 255.25
  Z"
/>
<path fill="#385fa2" d="
  M 123.18 255.72
  Q 122.56 265.44 123.15 275.01
  A 0.54 0.53 88.3 0 0 123.68 275.52
  L 330.37 275.50
  A 0.56 0.55 -89.5 0 1 330.92 276.07
  L 330.74 289.24
  A 0.52 0.52 0.0 0 1 330.22 289.76
  Q 228.90 289.72 127.58 289.79
  C 126.38 289.79 124.88 290.07 123.50 290.06
  A 0.51 0.50 0.6 0 0 122.99 290.55
  C 122.50 303.55 122.96 320.21 122.97 329.47
  Q 123.04 380.02 122.98 430.58
  A 0.77 0.77 0.0 0 0 123.37 431.25
  L 123.75 431.46
  L 105.41 431.49
  A 0.66 0.66 0.0 0 1 104.75 430.79
  C 105.49 416.97 104.46 405.43 105.06 389.34
  Q 105.08 388.84 104.86 388.40
  L 104.54 387.75
  C 105.40 354.03 104.95 320.25 105.21 286.50
  Q 104.38 289.79 107.02 289.92
  Q 113.90 290.24 122.34 289.80
  A 0.64 0.63 -1.9 0 0 122.95 289.16
  L 122.91 276.36
  A 0.69 0.69 0.0 0 0 122.31 275.68
  Q 113.47 274.49 104.95 276.88
  Q 105.25 276.43 104.84 275.68
  A 0.84 0.83 75.3 0 0 104.11 275.25
  L 92.60 275.25
  A 0.61 0.61 0.0 0 1 91.99 274.64
  L 92.04 256.50
  Q 92.68 256.43 93.22 256.08
  A 1.61 1.57 27.3 0 1 94.11 255.81
  L 123.18 255.72
  Z"
/>
<path fill="#4770c0" d="
  M 123.18 255.72
  C 145.61 256.17 167.93 255.79 190.32 255.83
  Q 260.78 255.96 331.25 256.04
  Q 330.66 265.46 331.21 274.99
  A 0.52 0.52 0.0 0 0 331.74 275.48
  C 337.63 275.33 343.41 275.47 349.22 275.37
  L 348.71 290.00
  L 331.80 290.09
  A 0.84 0.84 0.0 0 0 330.97 290.92
  Q 330.55 350.84 330.83 410.69
  Q 330.90 424.77 331.25 431.46
  L 123.75 431.46
  L 123.37 431.25
  A 0.77 0.77 0.0 0 1 122.98 430.58
  Q 123.04 380.02 122.97 329.47
  C 122.96 320.21 122.50 303.55 122.99 290.55
  A 0.51 0.50 0.6 0 1 123.50 290.06
  C 124.88 290.07 126.38 289.79 127.58 289.79
  Q 228.90 289.72 330.22 289.76
  A 0.52 0.52 0.0 0 0 330.74 289.24
  L 330.92 276.07
  A 0.56 0.55 -89.5 0 0 330.37 275.50
  L 123.68 275.52
  A 0.54 0.53 88.3 0 1 123.15 275.01
  Q 122.56 265.44 123.18 255.72
  Z
  M 159.71 376.50
  L 159.47 397.07
  A 0.54 0.53 -4.5 0 0 160.10 397.60
  Q 170.96 395.69 181.99 398.01
  Q 238.51 400.07 295.09 398.81
  A 0.58 0.58 0.0 0 0 295.65 398.30
  Q 296.73 389.57 296.74 385.75
  Q 296.83 351.25 296.59 316.89
  A 0.85 0.84 0.7 0 0 295.76 316.05
  Q 253.93 315.49 212.18 316.13
  C 210.87 316.15 209.04 315.57 207.50 315.62
  Q 189.65 316.20 171.79 316.25
  C 167.77 316.26 163.22 317.43 158.65 317.15
  A 0.42 0.42 0.0 0 0 158.21 317.61
  C 158.68 321.88 158.00 326.86 158.00 330.30
  C 158.01 346.29 155.99 361.05 159.71 376.50
  Z"
/>
<path fill="#2b5287" d="
  M 105.21 286.50
  L 104.95 276.88
  Q 113.47 274.49 122.31 275.68
  A 0.69 0.69 0.0 0 1 122.91 276.36
  L 122.95 289.16
  A 0.64 0.63 -1.9 0 1 122.34 289.80
  Q 113.90 290.24 107.02 289.92
  Q 104.38 289.79 105.21 286.50
  Z"
/>
<path fill="#5182d1" d="
  M 348.71 290.00
  Q 348.72 336.34 349.25 382.69
  Q 349.26 383.59 349.46 384.50
  C 348.45 385.84 349.30 387.18 349.29 388.27
  Q 349.09 409.49 348.91 430.86
  A 0.52 0.52 0.0 0 1 348.39 431.38
  L 331.25 431.46
  Q 330.90 424.77 330.83 410.69
  Q 330.55 350.84 330.97 290.92
  A 0.84 0.84 0.0 0 1 331.80 290.09
  L 348.71 290.00
  Z"
/>
<path fill="#385fa2" d="
  M 181.99 398.01
  Q 183.37 396.72 185.43 397.23
  A 1.00 0.99 29.6 0 0 186.38 396.97
  L 187.07 396.27
  Q 187.53 395.80 186.88 395.78
  L 184.00 395.71
  L 292.19 395.52
  A 0.51 0.50 -0.6 0 0 292.70 395.01
  L 292.50 320.82
  A 0.87 0.87 0.0 0 0 291.63 319.95
  L 161.78 320.32
  A 0.43 0.43 0.0 0 0 161.35 320.76
  L 161.46 366.50
  Q 160.17 366.55 160.25 368.00
  Q 160.44 371.49 159.71 376.50
  C 155.99 361.05 158.01 346.29 158.00 330.30
  C 158.00 326.86 158.68 321.88 158.21 317.61
  A 0.42 0.42 0.0 0 1 158.65 317.15
  C 163.22 317.43 167.77 316.26 171.79 316.25
  Q 189.65 316.20 207.50 315.62
  C 209.04 315.57 210.87 316.15 212.18 316.13
  Q 253.93 315.49 295.76 316.05
  A 0.85 0.84 0.7 0 1 296.59 316.89
  Q 296.83 351.25 296.74 385.75
  Q 296.73 389.57 295.65 398.30
  A 0.58 0.58 0.0 0 1 295.09 398.81
  Q 238.51 400.07 181.99 398.01
  Z"
/>
<path fill="#eef4fd" d="
  M 184.00 395.71
  L 161.55 395.67
  A 0.48 0.48 0.0 0 1 161.07 395.18
  L 161.46 366.50
  L 161.35 320.76
  A 0.43 0.43 0.0 0 1 161.78 320.32
  L 291.63 319.95
  A 0.87 0.87 0.0 0 1 292.50 320.82
  L 292.70 395.01
  A 0.51 0.50 -0.6 0 1 292.19 395.52
  L 184.00 395.71
  Z
  M 263.4097 337.6515
  A 7.85 7.21 -0.5 0 0 255.4971 330.5103
  A 7.85 7.21 -0.5 0 0 247.7103 337.7885
  A 7.85 7.21 -0.5 0 0 255.6229 344.9297
  A 7.85 7.21 -0.5 0 0 263.4097 337.6515
  Z
  M 180.19 339.25
  L 185.86 339.25
  A 0.56 0.55 -88.9 0 0 186.41 338.71
  L 186.47 337.00
  A 0.71 0.70 -85.0 0 0 185.87 336.28
  C 183.94 336.00 179.49 337.16 179.54 334.43
  A 0.72 0.72 0.0 0 1 180.25 333.72
  L 186.47 333.67
  A 0.64 0.63 -87.0 0 0 187.10 333.10
  L 187.28 331.43
  A 0.62 0.61 -87.0 0 0 186.67 330.75
  L 176.00 330.75
  A 0.51 0.50 -0.0 0 0 175.49 331.25
  L 175.51 344.10
  A 0.66 0.65 89.6 0 0 176.16 344.75
  L 186.62 344.75
  A 0.63 0.62 0.0 0 0 187.25 344.13
  L 187.26 342.32
  A 0.63 0.63 0.0 0 0 186.64 341.69
  L 180.43 341.51
  A 0.70 0.69 88.6 0 1 179.76 340.87
  L 179.67 339.81
  A 0.52 0.51 -2.5 0 1 180.19 339.25
  Z
  M 194.22 341.68
  A 0.64 0.64 0.0 0 1 193.54 341.04
  L 193.58 331.39
  A 0.64 0.64 0.0 0 0 192.94 330.75
  L 190.16 330.75
  A 0.64 0.64 0.0 0 0 189.52 331.39
  L 189.51 344.11
  A 0.64 0.64 0.0 0 0 190.15 344.75
  L 198.95 344.73
  A 0.64 0.64 0.0 0 0 199.59 344.12
  L 199.69 342.06
  A 0.64 0.64 0.0 0 0 199.02 341.39
  L 194.22 341.68
  Z
  M 205.24 334.65
  A 0.76 0.75 -4.5 0 1 205.99 333.78
  L 211.94 333.77
  A 0.72 0.72 0.0 0 0 212.65 333.14
  L 212.87 331.45
  A 0.62 0.62 0.0 0 0 212.25 330.75
  L 201.75 330.75
  A 0.50 0.50 0.0 0 0 201.25 331.25
  L 201.25 344.25
  A 0.50 0.50 0.0 0 0 201.75 344.75
  L 212.23 344.75
  A 0.69 0.69 0.0 0 0 212.92 344.09
  L 212.99 342.24
  A 0.58 0.58 0.0 0 0 212.42 341.64
  L 206.17 341.49
  A 0.65 0.65 0.0 0 1 205.53 340.86
  L 205.49 339.89
  A 0.62 0.62 0.0 0 1 206.11 339.25
  L 211.40 339.25
  A 0.68 0.67 1.3 0 0 212.08 338.61
  L 212.18 336.92
  A 0.65 0.64 -88.7 0 0 211.53 336.23
  C 209.85 336.27 205.59 337.03 205.24 334.65
  Z
  M 220.31 344.68
  Q 223.93 345.44 227.18 342.81
  A 0.63 0.62 -30.9 0 0 227.37 342.07
  Q 226.78 340.71 225.45 340.24
  A 1.07 1.06 37.5 0 0 224.48 340.36
  C 216.32 345.89 217.34 328.43 225.05 335.31
  A 0.61 0.61 0.0 0 0 225.95 335.20
  L 227.24 333.35
  A 0.69 0.68 34.5 0 0 227.06 332.39
  C 215.87 324.82 208.57 342.18 220.31 344.68
  Z
  M 232.50 334.37
  L 232.50 344.15
  A 0.55 0.55 0.0 0 0 232.95 344.69
  Q 234.50 344.97 235.99 344.58
  A 0.70 0.69 82.3 0 0 236.50 343.91
  L 236.50 334.33
  A 0.62 0.62 0.0 0 1 237.17 333.71
  L 239.88 333.94
  A 0.57 0.56 2.8 0 0 240.50 333.38
  L 240.51 331.38
  A 0.63 0.63 0.0 0 0 239.88 330.75
  L 228.88 330.75
  A 0.63 0.63 0.0 0 0 228.25 331.38
  L 228.25 333.13
  A 0.63 0.62 0.0 0 0 228.88 333.75
  L 231.87 333.75
  A 0.63 0.62 -0.0 0 1 232.50 334.37
  Z
  M 246.2628 331.2275
  A 0.46 0.46 0.0 0 0 245.8044 330.7659
  L 242.4644 330.7542
  A 0.46 0.46 0.0 0 0 242.0028 331.2126
  L 241.9572 344.2725
  A 0.46 0.46 0.0 0 0 242.4156 344.7341
  L 245.7556 344.7458
  A 0.46 0.46 0.0 0 0 246.2172 344.2874
  L 246.2628 331.2275
  Z
  M 268.75 337.77
  A 0.33 0.33 0.0 0 1 269.34 337.57
  L 274.58 344.54
  A 0.33 0.33 0.0 0 0 274.84 344.67
  L 278.16 344.75
  A 0.33 0.33 0.0 0 0 278.50 344.42
  L 278.50 331.08
  A 0.33 0.33 0.0 0 0 278.17 330.75
  L 274.90 330.75
  A 0.33 0.33 0.0 0 0 274.57 331.08
  L 274.67 337.70
  A 0.33 0.33 0.0 0 1 274.07 337.91
  L 268.83 330.89
  A 0.33 0.33 0.0 0 0 268.57 330.76
  L 265.33 330.75
  A 0.33 0.33 0.0 0 0 265.00 331.08
  L 265.00 344.42
  A 0.33 0.33 0.0 0 0 265.33 344.75
  L 268.42 344.75
  A 0.33 0.33 0.0 0 0 268.75 344.42
  L 268.75 337.77
  Z
  M 244.4097 369.5655
  A 18.24 17.12 0.3 0 0 226.2596 352.3502
  A 18.24 17.12 0.3 0 0 207.9303 369.3745
  A 18.24 17.12 0.3 0 0 226.0804 386.5898
  A 18.24 17.12 0.3 0 0 244.4097 369.5655
  Z
  M 199.74 368.09
  C 204.73 365.95 206.48 360.59 202.91 356.38
  C 198.78 351.50 183.47 352.42 176.02 352.94
  A 0.55 0.55 0.0 0 0 175.50 353.49
  L 175.50 385.51
  A 0.61 0.60 -89.0 0 0 176.08 386.12
  C 184.42 386.48 198.26 387.50 203.20 382.94
  C 207.36 379.10 206.57 369.92 199.81 368.71
  A 0.33 0.33 0.0 0 1 199.74 368.09
  Z
  M 263.30 360.97
  A 0.34 0.34 0.0 0 1 262.73 360.97
  L 257.68 352.91
  A 0.34 0.34 0.0 0 0 257.39 352.75
  L 246.57 352.75
  A 0.34 0.34 0.0 0 0 246.29 353.28
  L 256.97 368.81
  A 0.34 0.34 0.0 0 1 256.97 369.19
  L 245.49 385.68
  A 0.34 0.34 0.0 0 0 245.77 386.22
  L 256.67 386.17
  A 0.34 0.34 0.0 0 0 256.95 386.02
  L 262.68 377.23
  A 0.34 0.34 0.0 0 1 263.25 377.23
  L 269.38 386.10
  A 0.34 0.34 0.0 0 0 269.66 386.25
  L 280.86 386.21
  A 0.34 0.34 0.0 0 0 281.14 385.68
  L 269.52 368.71
  A 0.34 0.34 0.0 0 1 269.52 368.33
  L 280.03 353.31
  A 0.34 0.34 0.0 0 0 279.75 352.77
  L 268.77 352.78
  A 0.34 0.34 0.0 0 0 268.48 352.94
  L 263.30 360.97
  Z"
/>
<path fill="#2b5287" d="
  M 263.4097 337.6515
  A 7.85 7.21 -0.5 0 1 255.6229 344.9297
  A 7.85 7.21 -0.5 0 1 247.7103 337.7885
  A 7.85 7.21 -0.5 0 1 255.4971 330.5103
  A 7.85 7.21 -0.5 0 1 263.4097 337.6515
  Z
  M 255.9579 341.3871
  A 3.68 3.39 85.2 0 0 259.0281 337.4363
  A 3.68 3.39 85.2 0 0 255.3421 334.0529
  A 3.68 3.39 85.2 0 0 252.2719 338.0037
  A 3.68 3.39 85.2 0 0 255.9579 341.3871
  Z"
/>
<path fill="#2b5287" d="
  M 179.67 339.81
  L 179.76 340.87
  A 0.70 0.69 88.6 0 0 180.43 341.51
  L 186.64 341.69
  A 0.63 0.63 0.0 0 1 187.26 342.32
  L 187.25 344.13
  A 0.63 0.62 -0.0 0 1 186.62 344.75
  L 176.16 344.75
  A 0.66 0.65 89.6 0 1 175.51 344.10
  L 175.49 331.25
  A 0.51 0.50 -0.0 0 1 176.00 330.75
  L 186.67 330.75
  A 0.62 0.61 -87.0 0 1 187.28 331.43
  L 187.10 333.10
  A 0.64 0.63 -87.0 0 1 186.47 333.67
  L 180.25 333.72
  A 0.72 0.72 0.0 0 0 179.54 334.43
  C 179.49 337.16 183.94 336.00 185.87 336.28
  A 0.71 0.70 -85.0 0 1 186.47 337.00
  L 186.41 338.71
  A 0.56 0.55 -88.9 0 1 185.86 339.25
  L 180.19 339.25
  A 0.52 0.51 -2.5 0 0 179.67 339.81
  Z"
/>
<path fill="#2b5287" d="
  M 194.22 341.68
  L 199.02 341.39
  A 0.64 0.64 0.0 0 1 199.69 342.06
  L 199.59 344.12
  A 0.64 0.64 0.0 0 1 198.95 344.73
  L 190.15 344.75
  A 0.64 0.64 0.0 0 1 189.51 344.11
  L 189.52 331.39
  A 0.64 0.64 0.0 0 1 190.16 330.75
  L 192.94 330.75
  A 0.64 0.64 0.0 0 1 193.58 331.39
  L 193.54 341.04
  A 0.64 0.64 0.0 0 0 194.22 341.68
  Z"
/>
<path fill="#2b5287" d="
  M 205.24 334.65
  C 205.59 337.03 209.85 336.27 211.53 336.23
  A 0.65 0.64 -88.7 0 1 212.18 336.92
  L 212.08 338.61
  A 0.68 0.67 1.3 0 1 211.40 339.25
  L 206.11 339.25
  A 0.62 0.62 0.0 0 0 205.49 339.89
  L 205.53 340.86
  A 0.65 0.65 0.0 0 0 206.17 341.49
  L 212.42 341.64
  A 0.58 0.58 0.0 0 1 212.99 342.24
  L 212.92 344.09
  A 0.69 0.69 0.0 0 1 212.23 344.75
  L 201.75 344.75
  A 0.50 0.50 0.0 0 1 201.25 344.25
  L 201.25 331.25
  A 0.50 0.50 0.0 0 1 201.75 330.75
  L 212.25 330.75
  A 0.62 0.62 0.0 0 1 212.87 331.45
  L 212.65 333.14
  A 0.72 0.72 0.0 0 1 211.94 333.77
  L 205.99 333.78
  A 0.76 0.75 -4.5 0 0 205.24 334.65
  Z"
/>
<path fill="#2b5287" d="
  M 220.31 344.68
  C 208.57 342.18 215.87 324.82 227.06 332.39
  A 0.69 0.68 34.5 0 1 227.24 333.35
  L 225.95 335.20
  A 0.61 0.61 0.0 0 1 225.05 335.31
  C 217.34 328.43 216.32 345.89 224.48 340.36
  A 1.07 1.06 37.5 0 1 225.45 340.24
  Q 226.78 340.71 227.37 342.07
  A 0.63 0.62 -30.9 0 1 227.18 342.81
  Q 223.93 345.44 220.31 344.68
  Z"
/>
<path fill="#2b5287" d="
  M 231.87 333.75
  L 228.88 333.75
  A 0.63 0.62 -0.0 0 1 228.25 333.13
  L 228.25 331.38
  A 0.63 0.63 0.0 0 1 228.88 330.75
  L 239.88 330.75
  A 0.63 0.63 0.0 0 1 240.51 331.38
  L 240.50 333.38
  A 0.57 0.56 2.8 0 1 239.88 333.94
  L 237.17 333.71
  A 0.62 0.62 0.0 0 0 236.50 334.33
  L 236.50 343.91
  A 0.70 0.69 82.3 0 1 235.99 344.58
  Q 234.50 344.97 232.95 344.69
  A 0.55 0.55 0.0 0 1 232.50 344.15
  L 232.50 334.37
  A 0.63 0.62 0.0 0 0 231.87 333.75
  Z"
/>
<rect fill="#2b5287" x="-2.13" y="-6.99" transform="translate(244.11,337.75) rotate(0.2)" width="4.26" height="13.98" rx="0.46"/>
<path fill="#2b5287" d="
  M 268.75 337.77
  L 268.75 344.42
  A 0.33 0.33 0.0 0 1 268.42 344.75
  L 265.33 344.75
  A 0.33 0.33 0.0 0 1 265.00 344.42
  L 265.00 331.08
  A 0.33 0.33 0.0 0 1 265.33 330.75
  L 268.57 330.76
  A 0.33 0.33 0.0 0 1 268.83 330.89
  L 274.07 337.91
  A 0.33 0.33 0.0 0 0 274.67 337.70
  L 274.57 331.08
  A 0.33 0.33 0.0 0 1 274.90 330.75
  L 278.17 330.75
  A 0.33 0.33 0.0 0 1 278.50 331.08
  L 278.50 344.42
  A 0.33 0.33 0.0 0 1 278.16 344.75
  L 274.84 344.67
  A 0.33 0.33 0.0 0 1 274.58 344.54
  L 269.34 337.57
  A 0.33 0.33 0.0 0 0 268.75 337.77
  Z"
/>
<ellipse fill="#eef4fd" cx="0.00" cy="0.00" transform="translate(255.65,337.72) rotate(85.2)" rx="3.68" ry="3.39"/>
<path fill="#2b5287" d="
  M 244.4097 369.5655
  A 18.24 17.12 0.3 0 1 226.0804 386.5898
  A 18.24 17.12 0.3 0 1 207.9303 369.3745
  A 18.24 17.12 0.3 0 1 226.2596 352.3502
  A 18.24 17.12 0.3 0 1 244.4097 369.5655
  Z
  M 226.0885 378.1592
  A 8.70 7.98 90.8 0 0 234.1892 369.5714
  A 8.70 7.98 90.8 0 0 226.3315 360.7608
  A 8.70 7.98 90.8 0 0 218.2308 369.3486
  A 8.70 7.98 90.8 0 0 226.0885 378.1592
  Z"
/>
<path fill="#2b5287" d="
  M 199.74 368.09
  A 0.33 0.33 0.0 0 0 199.81 368.71
  C 206.57 369.92 207.36 379.10 203.20 382.94
  C 198.26 387.50 184.42 386.48 176.08 386.12
  A 0.61 0.60 -89.0 0 1 175.50 385.51
  L 175.50 353.49
  A 0.55 0.55 0.0 0 1 176.02 352.94
  C 183.47 352.42 198.78 351.50 202.91 356.38
  C 206.48 360.59 204.73 365.95 199.74 368.09
  Z
  M 192.97 360.62
  Q 189.68 359.92 185.97 360.30
  A 0.53 0.52 -3.1 0 0 185.50 360.82
  L 185.50 365.20
  A 0.52 0.52 0.0 0 0 185.99 365.72
  C 188.85 365.92 194.97 366.73 194.45 362.24
  A 1.88 1.88 0.0 0 0 192.97 360.62
  Z
  M 193.81 373.19
  Q 190.92 371.90 186.07 372.56
  A 0.63 0.62 86.8 0 0 185.53 373.17
  L 185.42 378.12
  A 0.53 0.53 0.0 0 0 185.90 378.66
  Q 191.25 379.15 193.32 378.34
  C 195.71 377.41 196.49 374.38 193.81 373.19
  Z"
/>
<path fill="#2b5287" d="
  M 263.30 360.97
  L 268.48 352.94
  A 0.34 0.34 0.0 0 1 268.77 352.78
  L 279.75 352.77
  A 0.34 0.34 0.0 0 1 280.03 353.31
  L 269.52 368.33
  A 0.34 0.34 0.0 0 0 269.52 368.71
  L 281.14 385.68
  A 0.34 0.34 0.0 0 1 280.86 386.21
  L 269.66 386.25
  A 0.34 0.34 0.0 0 1 269.38 386.10
  L 263.25 377.23
  A 0.34 0.34 0.0 0 0 262.68 377.23
  L 256.95 386.02
  A 0.34 0.34 0.0 0 1 256.67 386.17
  L 245.77 386.22
  A 0.34 0.34 0.0 0 1 245.49 385.68
  L 256.97 369.19
  A 0.34 0.34 0.0 0 0 256.97 368.81
  L 246.29 353.28
  A 0.34 0.34 0.0 0 1 246.57 352.75
  L 257.39 352.75
  A 0.34 0.34 0.0 0 1 257.68 352.91
  L 262.73 360.97
  A 0.34 0.34 0.0 0 0 263.30 360.97
  Z"
/>
<path fill="#eef4fd" d="
  M 192.97 360.62
  A 1.88 1.88 0.0 0 1 194.45 362.24
  C 194.97 366.73 188.85 365.92 185.99 365.72
  A 0.52 0.52 0.0 0 1 185.50 365.20
  L 185.50 360.82
  A 0.53 0.52 -3.1 0 1 185.97 360.30
  Q 189.68 359.92 192.97 360.62
  Z"
/>
<ellipse fill="#eef4fd" cx="0.00" cy="0.00" transform="translate(226.21,369.46) rotate(90.8)" rx="8.70" ry="7.98"/>
<path fill="#2b5287" d="
  M 161.46 366.50
  L 161.07 395.18
  A 0.48 0.48 0.0 0 0 161.55 395.67
  L 184.00 395.71
  L 186.88 395.78
  Q 187.53 395.80 187.07 396.27
  L 186.38 396.97
  A 1.00 0.99 29.6 0 1 185.43 397.23
  Q 183.37 396.72 181.99 398.01
  Q 170.96 395.69 160.10 397.60
  A 0.54 0.53 -4.5 0 1 159.47 397.07
  L 159.71 376.50
  Q 160.44 371.49 160.25 368.00
  Q 160.17 366.55 161.46 366.50
  Z"
/>
<path fill="#eef4fd" d="
  M 193.81 373.19
  C 196.49 374.38 195.71 377.41 193.32 378.34
  Q 191.25 379.15 185.90 378.66
  A 0.53 0.53 0.0 0 1 185.42 378.12
  L 185.53 373.17
  A 0.63 0.62 86.8 0 1 186.07 372.56
  Q 190.92 371.90 193.81 373.19
  Z"
/>
<path fill="#2bd5a4" d="
  M 349.46 384.50
  C 350.49 387.44 354.03 388.43 355.34 390.67
  Q 371.10 417.59 387.09 444.37
  C 389.13 447.78 394.92 455.90 386.88 456.82
  C 378.52 457.78 369.32 457.35 362.11 457.37
  Q 236.83 457.70 67.50 457.16
  Q 63.66 457.15 60.84 456.52
  A 0.51 0.51 0.0 0 1 60.46 455.90
  Q 61.06 453.53 62.94 450.69
  Q 75.49 431.71 96.76 397.28
  Q 98.12 395.08 104.54 387.75
  L 104.86 388.40
  Q 105.08 388.84 105.06 389.34
  C 104.46 405.43 105.49 416.97 104.75 430.79
  A 0.66 0.66 0.0 0 0 105.41 431.49
  L 123.75 431.46
  L 331.25 431.46
  L 348.39 431.38
  A 0.52 0.52 0.0 0 0 348.91 430.86
  Q 349.09 409.49 349.29 388.27
  C 349.30 387.18 348.45 385.84 349.46 384.50
  Z"
/>
</svg>
